<svg id="Layer_1" data-name="Layer 1" xmlns="http://www.w3.org/2000/svg" xmlns:xlink="http://www.w3.org/1999/xlink" viewBox="0 0 800 647.55"><defs><style>.cls-1,.cls-20,.cls-3{fill:#fff;}.cls-16,.cls-2{fill:#5dfe8c;}.cls-16,.cls-3{fill-rule:evenodd;}.cls-4{clip-path:url(#clip-path);}.cls-5{clip-path:url(#clip-path-2);}.cls-6{clip-path:url(#clip-path-3);}.cls-7{clip-path:url(#clip-path-5);}.cls-8{clip-path:url(#clip-path-7);}.cls-9{clip-path:url(#clip-path-9);}.cls-10{clip-path:url(#clip-path-11);}.cls-11{clip-path:url(#clip-path-12);}.cls-12{clip-path:url(#clip-path-13);}.cls-13{clip-path:url(#clip-path-15);}.cls-14{clip-path:url(#clip-path-17);}.cls-15{clip-path:url(#clip-path-19);}.cls-17{clip-path:url(#clip-path-21);}.cls-18{clip-path:url(#clip-path-22);}.cls-19{clip-path:url(#clip-path-23);}.cls-20{isolation:isolate;opacity:0.8;}.cls-21{clip-path:url(#clip-path-25);}.cls-22{clip-path:url(#clip-path-27);}.cls-23{clip-path:url(#clip-path-29);}.cls-24{clip-path:url(#clip-path-31);}.cls-25{clip-path:url(#clip-path-33);}.cls-26{clip-path:url(#clip-path-35);}.cls-27{clip-path:url(#clip-path-37);}.cls-28{clip-path:url(#clip-path-39);}.cls-29{clip-path:url(#clip-path-41);}.cls-30{clip-path:url(#clip-path-43);}.cls-31{clip-path:url(#clip-path-45);}.cls-32{clip-path:url(#clip-path-47);}.cls-33{clip-path:url(#clip-path-49);}.cls-34{clip-path:url(#clip-path-50);}.cls-35{clip-path:url(#clip-path-51);}.cls-36{clip-path:url(#clip-path-52);}.cls-37{clip-path:url(#clip-path-53);}.cls-38{clip-path:url(#clip-path-54);}.cls-39{clip-path:url(#clip-path-55);}.cls-40{clip-path:url(#clip-path-56);}.cls-41{clip-path:url(#clip-path-57);}.cls-42{clip-path:url(#clip-path-58);}.cls-43{clip-path:url(#clip-path-59);}.cls-44{clip-path:url(#clip-path-60);}.cls-45{clip-path:url(#clip-path-61);}.cls-46{clip-path:url(#clip-path-62);}.cls-47{clip-path:url(#clip-path-63);}.cls-48{clip-path:url(#clip-path-64);}.cls-49{clip-path:url(#clip-path-65);}.cls-50{clip-path:url(#clip-path-66);}.cls-51{clip-path:url(#clip-path-67);}.cls-52{clip-path:url(#clip-path-68);}.cls-53{clip-path:url(#clip-path-69);}.cls-54{clip-path:url(#clip-path-70);}.cls-55{clip-path:url(#clip-path-71);}.cls-56{clip-path:url(#clip-path-72);}.cls-57{clip-path:url(#clip-path-73);}.cls-58{clip-path:url(#clip-path-74);}.cls-59{clip-path:url(#clip-path-75);}.cls-60{clip-path:url(#clip-path-76);}.cls-61{clip-path:url(#clip-path-77);}.cls-62{clip-path:url(#clip-path-78);}.cls-63{clip-path:url(#clip-path-79);}.cls-64{clip-path:url(#clip-path-80);}.cls-65{clip-path:url(#clip-path-81);}.cls-66{clip-path:url(#clip-path-82);}.cls-67{clip-path:url(#clip-path-83);}.cls-68{clip-path:url(#clip-path-84);}.cls-69{clip-path:url(#clip-path-85);}.cls-70{clip-path:url(#clip-path-86);}.cls-71{clip-path:url(#clip-path-87);}.cls-72{clip-path:url(#clip-path-88);}.cls-73{clip-path:url(#clip-path-89);}.cls-74{clip-path:url(#clip-path-90);}.cls-75{clip-path:url(#clip-path-91);}.cls-76{clip-path:url(#clip-path-92);}.cls-77{clip-path:url(#clip-path-93);}.cls-78{clip-path:url(#clip-path-94);}.cls-79{clip-path:url(#clip-path-95);}.cls-80{clip-path:url(#clip-path-96);}.cls-81{clip-path:url(#clip-path-97);}.cls-82{clip-path:url(#clip-path-98);}.cls-83{clip-path:url(#clip-path-99);}.cls-84{clip-path:url(#clip-path-100);}.cls-85{clip-path:url(#clip-path-101);}.cls-86{clip-path:url(#clip-path-102);}.cls-87{clip-path:url(#clip-path-103);}.cls-88{clip-path:url(#clip-path-104);}.cls-89{clip-path:url(#clip-path-105);}.cls-90{clip-path:url(#clip-path-106);}.cls-91{clip-path:url(#clip-path-107);}.cls-92{clip-path:url(#clip-path-108);}.cls-93{clip-path:url(#clip-path-109);}.cls-94{clip-path:url(#clip-path-110);}.cls-95{clip-path:url(#clip-path-111);}.cls-96{clip-path:url(#clip-path-112);}.cls-97{clip-path:url(#clip-path-113);}.cls-98{clip-path:url(#clip-path-114);}.cls-99{clip-path:url(#clip-path-115);}.cls-100{clip-path:url(#clip-path-116);}.cls-101{clip-path:url(#clip-path-117);}.cls-102{clip-path:url(#clip-path-118);}.cls-103{clip-path:url(#clip-path-119);}</style><clipPath id="clip-path"><path class="cls-1" d="M263.43,444.28h18.68a8.46,8.46,0,0,0,8.6-8.6V416.63H272a8.45,8.45,0,0,0-8.59,8.59Z"/></clipPath><clipPath id="clip-path-2"><rect class="cls-1" x="-1173.28" y="-798.51" width="3146.19" height="2223.26"/></clipPath><clipPath id="clip-path-3"><path class="cls-1" d="M274.64,548.53h16.07V465.58a11,11,0,0,0-11.21-11.21H263.43v83A11,11,0,0,0,274.64,548.53Z"/></clipPath><clipPath id="clip-path-5"><path class="cls-1" d="M349.37,424.85H322.09v29.52H307.52v25.78h14.57v42.6c0,17.18,9,25.78,26.53,25.78h22.05V522.75H356.1c-4.11,0-6.36-2.25-6.36-6.36V480.52h20.93V454.74H349.74V424.85Z"/></clipPath><clipPath id="clip-path-7"><path class="cls-1" d="M430.45,478.28A19,19,0,0,1,445,484.63a35.52,35.52,0,0,1,3.73,6.36h28.4a48.45,48.45,0,0,0-7.85-19.43c-9.34-13.08-22.42-19.43-38.86-19.43-14.2,0-25.78,4.48-34.75,13.82s-13.45,20.93-13.45,35.12,4.49,26.16,13.45,35.13c9,9.34,20.55,13.82,34.75,13.82,16.82,0,29.9-6.35,38.86-19.43a46.46,46.46,0,0,0,7.85-19.43h-28.4a20.5,20.5,0,0,1-3.73,6.36c-3.37,4.48-8.22,6.35-14.58,6.35a19.71,19.71,0,0,1-14.94-6.35c-4.11-4.12-6-9.72-6-16.82,0-6.73,1.87-12.33,6-16.81a22.22,22.22,0,0,1,14.94-5.61"/></clipPath><clipPath id="clip-path-9"><path class="cls-1" d="M526.48,518.26a20.56,20.56,0,0,0,15.32,6.35,19.74,19.74,0,0,0,15-6.35c4.11-4.11,6-9.71,6-16.81s-1.87-12.33-6-16.82-9-6.35-15-6.35a19.71,19.71,0,0,0-14.94,6.35c-4.11,4.11-6,9.72-6,16.82S522.75,514.15,526.48,518.26Zm49.33,30.27-11.59-9.34a56,56,0,0,1-7.1,5.6,33.88,33.88,0,0,1-19.43,5.61c-12.7,0-23.16-4.49-31.76-13.83s-13.08-20.92-13.08-35.12,4.49-25.78,13.08-35.13S525,452.5,537.69,452.5a34,34,0,0,1,19.43,5.6,43.66,43.66,0,0,1,6,5.61h.75l1.87-9.34h23.91v94.16Z"/></clipPath><clipPath id="clip-path-11"><path class="cls-1" d="M786.17,466c-9-9-20.17-13.45-34-13.45-14.2,0-25.78,4.48-34.75,13.82S704,487.25,704,501.45s4.48,26.15,13.45,35.12c9,9.34,20.55,13.83,34.75,13.83s25.78-4.86,35.5-14.95A45.58,45.58,0,0,0,797,520.13H769.73c-.74,1.5-2.24,2.62-4.11,4.11a22.6,22.6,0,0,1-13.07,4.11q-9,0-14.58-5.6a20.85,20.85,0,0,1-6.35-13.83h67.63l.38-2.24a53.42,53.42,0,0,0,.37-7.1C799.63,486.13,795.14,474.92,786.17,466Zm-54.92,26.53c2.61-12.33,9.71-18.31,20.92-18.31s18.31,6,20.93,18.31Z"/></clipPath><clipPath id="clip-path-12"><rect class="cls-1" x="703.6" y="452.5" width="96.03" height="97.9"/></clipPath><clipPath id="clip-path-13"><polygon class="cls-1" points="666.98 456.24 635.96 497.71 635.96 465.58 635.96 419.62 608.69 419.62 608.69 502.19 608.69 548.53 635.96 548.53 635.96 539.19 635.96 507.05 666.98 548.53 698.74 548.53 664.36 502.19 698.74 456.24 666.98 456.24"/></clipPath><clipPath id="clip-path-15"><path class="cls-1" d="M120.69,454.37a14.15,14.15,0,0,0-7.85,2.61l-7.47,5.61L94.16,454H78.09v94.17h27.28V497a16.34,16.34,0,0,1,16.44-16.44h16.44V454.74H120.69Z"/></clipPath><clipPath id="clip-path-17"><path class="cls-1" d="M14.57,548.53V480.15H0V454.37H14.57V441.66c0-16.44,9-25.78,26.53-25.78H62v22.79H48.2c-4.11,0-6.35,2.25-6.35,6.36v9.34H62v25.78H41.85v68.38Z"/></clipPath><clipPath id="clip-path-19"><path class="cls-1" d="M214.11,506.31c0,5.23-1.5,9.34-4.86,12.7a16.63,16.63,0,0,1-12.33,4.86c-5.23,0-9.34-1.5-12.33-4.86-3.37-3.36-4.86-7.47-4.86-12.7V454.74H152.45v57.17c0,11.58,3.37,20.93,10.46,28s16.07,10.84,26.91,10.84a20,20,0,0,0,4.86-.37,27.87,27.87,0,0,0,14.19-5.61l6-4.48,11.21,8.59h16.07V454.74H214.85v51.57Z"/></clipPath><clipPath id="clip-path-21"><path class="cls-2" d="M319.48,19.06c-31.39,2.61-56.43,30.64-56.43,62V300.79l217.47-19.05c31.39-2.62,56.43-30.64,56.43-62V0Zm99,145.72c0,10.47-8.6,19.81-18.69,20.55l-27.27,2.25v27.65c0,10.46-8.6,19.8-18.69,20.55L326.58,238V164.78c0-10.46,8.59-19.8,18.68-20.55l73.24-6.35Zm54.55-74.73c0,10.46-8.59,19.81-18.68,20.55L349,119.94V92.29c0-10.46,8.59-19.8,18.68-20.55L473.05,62.4Z"/></clipPath><clipPath id="clip-path-22"><rect class="cls-2" x="262.68" width="274.26" height="301.17"/></clipPath><clipPath id="clip-path-23"><polygon class="cls-1" points="159.55 647.17 159.55 636.71 149.46 618.03 153.95 618.03 161.42 631.48 162.17 631.48 169.27 618.03 174.12 618.03 164.03 636.71 164.03 647.17 159.55 647.17"/></clipPath><clipPath id="clip-path-25"><path class="cls-1" d="M203.64,624.75a9.08,9.08,0,0,0-13.45,0c-1.87,1.87-2.61,4.49-2.61,7.85s.74,6,2.61,7.85a9.06,9.06,0,0,0,13.45,0c1.87-1.87,2.62-4.49,2.62-7.85A13.17,13.17,0,0,0,203.64,624.75Zm2.62,18.69a12.77,12.77,0,0,1-9.34,4.11,12.15,12.15,0,0,1-9.34-4.11c-2.62-2.62-3.74-6.35-3.74-10.84s1.12-7.85,3.74-10.83a12.7,12.7,0,0,1,9.34-4.11,12.13,12.13,0,0,1,9.34,4.11c2.61,2.61,3.74,6.35,3.74,10.83S208.87,640.82,206.26,643.44Z"/></clipPath><clipPath id="clip-path-27"><path class="cls-1" d="M223.45,635.59V618h4.11v17.56a9.15,9.15,0,0,0,1.87,5.61,6.57,6.57,0,0,0,4.85,2.24,6,6,0,0,0,4.86-2.24c1.5-1.5,1.87-3.37,1.87-5.61V618h4.11v17.56a12.58,12.58,0,0,1-3,8.59,11.71,11.71,0,0,1-16.44,0A16.88,16.88,0,0,1,223.45,635.59Z"/></clipPath><clipPath id="clip-path-29"><path class="cls-1" d="M264.55,632.6h8.22a3.4,3.4,0,0,0,3-1.49,6.8,6.8,0,0,0,0-7.48,3.4,3.4,0,0,0-3-1.49h-8.22Zm-4.48,14.57V618h12.7a7.47,7.47,0,0,1,6,2.61,11.23,11.23,0,0,1,0,13.46,7,7,0,0,1-6,2.61h-1.12l10.09,10.46h-5.23l-10.09-10.46h-1.87v10.46Z"/></clipPath><clipPath id="clip-path-31"><path class="cls-1" d="M320.22,636h5.61l1.49-6.72h-5.6Zm-6,11.21,1.49-7.47h-5.6l.74-3.74h5.61l1.49-6.72h-5.6l.74-3.74h5.61l1.49-7.47H324l-1.49,7.47h5.6l1.5-7.47h3.73l-1.49,7.47h5.6l-.74,3.74h-5.61L329.57,636h5.6l-.75,3.74h-5.6l-1.5,7.47h-3.73l1.49-7.47h-5.6l-1.5,7.47Z"/></clipPath><clipPath id="clip-path-33"><path class="cls-1" d="M353.11,647.17V625.5H347.5v-4.11H352a1,1,0,0,0,1.12-1.12V618.4h4.11v29.15h-4.11Z"/></clipPath><clipPath id="clip-path-35"><path class="cls-1" d="M390.1,647.17V618h9.71a13.56,13.56,0,0,1,9.72,4.11c2.61,2.61,3.73,6.35,3.73,10.46s-1.12,7.85-3.73,10.46a13,13,0,0,1-9.72,4.11Zm4.11-4.11h5.6a9.36,9.36,0,0,0,6.73-3c1.87-1.86,2.61-4.48,2.61-7.47s-.74-5.6-2.61-7.47a9.36,9.36,0,0,0-6.73-3h-5.6Z"/></clipPath><clipPath id="clip-path-37"><polygon class="cls-1" points="426.72 647.17 426.72 618.03 445.03 618.03 445.03 622.14 430.83 622.14 430.83 630.73 444.28 630.73 444.28 634.84 430.83 634.84 430.83 643.06 445.03 643.06 445.03 647.17 426.72 647.17"/></clipPath><clipPath id="clip-path-39"><polygon class="cls-1" points="465.95 647.17 455.86 618.03 460.72 618.03 468.57 642.32 469.31 642.32 477.53 618.03 482.02 618.03 472.3 647.17 465.95 647.17"/></clipPath><clipPath id="clip-path-41"><polygon class="cls-1" points="516.02 647.17 516.02 622.14 507.05 622.14 507.05 618.03 529.1 618.03 529.1 622.14 520.13 622.14 520.13 647.17 516.02 647.17"/></clipPath><clipPath id="clip-path-43"><polygon class="cls-1" points="541.43 647.17 541.43 618.03 559.74 618.03 559.74 622.14 545.54 622.14 545.54 630.73 558.99 630.73 558.99 634.84 545.54 634.84 545.54 643.06 559.74 643.06 559.74 647.17 541.43 647.17"/></clipPath><clipPath id="clip-path-45"><path class="cls-1" d="M578.79,636.34h10.09l-4.48-13.45h-.75Zm-8.22,10.83L580.66,618H587l10.08,29.14h-4.48l-2.24-6.72H577.67l-2.24,6.72Z"/></clipPath><clipPath id="clip-path-47"><polygon class="cls-1" points="609.06 647.17 609.06 618.03 616.16 618.03 623.63 640.82 624.38 640.82 631.85 618.03 638.95 618.03 638.95 647.17 634.84 647.17 634.84 625.13 634.1 625.13 626.62 647.17 621.02 647.17 613.92 625.13 613.17 625.13 613.17 647.17 609.06 647.17"/></clipPath><clipPath id="clip-path-49"><path class="cls-1" d="M264.43-244.72h18.68a8.46,8.46,0,0,0,8.6-8.6v-19.05H273a8.45,8.45,0,0,0-8.59,8.59Z"/></clipPath><clipPath id="clip-path-50"><path class="cls-1" d="M275.64-140.47h16.07v-82.95a11,11,0,0,0-11.21-11.21H264.43v82.95A11,11,0,0,0,275.64-140.47Z"/></clipPath><clipPath id="clip-path-51"><path class="cls-1" d="M350.37-264.15H323.09v29.52H308.52v25.78h14.57v42.6c0,17.18,9,25.78,26.53,25.78h22.05v-25.78H357.1c-4.11,0-6.36-2.25-6.36-6.36v-35.87h20.93v-25.78H350.74v-29.89Z"/></clipPath><clipPath id="clip-path-52"><path class="cls-1" d="M431.45-210.72A19,19,0,0,1,446-204.37a35.52,35.52,0,0,1,3.73,6.36h28.4a48.45,48.45,0,0,0-7.85-19.43c-9.34-13.08-22.42-19.43-38.86-19.43-14.2,0-25.78,4.48-34.75,13.82s-13.45,20.93-13.45,35.12,4.49,26.16,13.45,35.13c9,9.34,20.55,13.82,34.75,13.82,16.82,0,29.9-6.35,38.86-19.43a46.46,46.46,0,0,0,7.85-19.43h-28.4a20.5,20.5,0,0,1-3.73,6.36c-3.37,4.48-8.22,6.35-14.58,6.35a19.71,19.71,0,0,1-14.94-6.35c-4.11-4.12-6-9.72-6-16.82,0-6.73,1.87-12.33,6-16.81a22.22,22.22,0,0,1,14.94-5.61"/></clipPath><clipPath id="clip-path-53"><path class="cls-1" d="M527.48-170.74a20.56,20.56,0,0,0,15.32,6.35,19.74,19.74,0,0,0,15-6.35c4.11-4.11,6-9.71,6-16.81s-1.87-12.33-6-16.82-9-6.35-15-6.35a19.71,19.71,0,0,0-14.94,6.35c-4.11,4.11-6,9.72-6,16.82S523.75-174.85,527.48-170.74Zm49.33,30.27-11.59-9.34a56,56,0,0,1-7.1,5.6,33.88,33.88,0,0,1-19.43,5.61c-12.7,0-23.16-4.49-31.76-13.83s-13.08-20.92-13.08-35.12,4.49-25.78,13.08-35.13S526-236.5,538.69-236.5a34,34,0,0,1,19.43,5.6,43.66,43.66,0,0,1,6,5.61h.75l1.87-9.34h23.91v94.16Z"/></clipPath><clipPath id="clip-path-54"><polygon class="cls-1" points="667.98 -232.76 636.96 -191.29 636.96 -223.42 636.96 -269.38 609.69 -269.38 609.69 -186.81 609.69 -140.47 636.96 -140.47 636.96 -149.81 636.96 -181.95 667.98 -140.47 699.74 -140.47 665.36 -186.81 699.74 -232.76 667.98 -232.76"/></clipPath><clipPath id="clip-path-55"><path class="cls-1" d="M121.69-234.63a14.15,14.15,0,0,0-7.85,2.61l-7.47,5.61L95.16-235H79.09v94.17h27.28V-192a16.34,16.34,0,0,1,16.44-16.44h16.44v-25.78H121.69Z"/></clipPath><clipPath id="clip-path-56"><path class="cls-1" d="M15.57-140.47v-68.38H1v-25.78H15.57v-12.71c0-16.44,9-25.78,26.53-25.78H63v22.79H49.2c-4.11,0-6.35,2.25-6.35,6.36v9.34H63v25.78H42.85v68.38Z"/></clipPath><clipPath id="clip-path-57"><path class="cls-1" d="M215.11-182.69c0,5.23-1.5,9.34-4.86,12.7a16.63,16.63,0,0,1-12.33,4.86c-5.23,0-9.34-1.5-12.33-4.86-3.37-3.36-4.86-7.47-4.86-12.7v-51.57H153.45v57.17c0,11.58,3.37,20.93,10.46,28s16.07,10.84,26.91,10.84a20,20,0,0,0,4.86-.37,27.87,27.87,0,0,0,14.19-5.61l6-4.48,11.21,8.59h16.07v-94.16H215.85v51.57Z"/></clipPath><clipPath id="clip-path-58"><path d="M2142.43,444.28h18.68a8.46,8.46,0,0,0,8.6-8.6V416.63H2151a8.45,8.45,0,0,0-8.59,8.59Z"/></clipPath><clipPath id="clip-path-59"><path d="M2153.64,548.53h16.07V465.58a11,11,0,0,0-11.21-11.21h-16.07v83A11,11,0,0,0,2153.64,548.53Z"/></clipPath><clipPath id="clip-path-60"><path d="M2228.37,424.85h-27.28v29.52h-14.57v25.78h14.57v42.6c0,17.18,9,25.78,26.53,25.78h22.05V522.75H2235.1c-4.11,0-6.36-2.25-6.36-6.36V480.52h20.93V454.74h-20.93V424.85Z"/></clipPath><clipPath id="clip-path-61"><path d="M2309.45,478.28a19,19,0,0,1,14.58,6.35,35.52,35.52,0,0,1,3.73,6.36h28.4a48.45,48.45,0,0,0-7.85-19.43c-9.34-13.08-22.42-19.43-38.86-19.43-14.2,0-25.78,4.48-34.75,13.82s-13.45,20.93-13.45,35.12,4.49,26.16,13.45,35.13c9,9.34,20.55,13.82,34.75,13.82,16.82,0,29.9-6.35,38.86-19.43a46.46,46.46,0,0,0,7.85-19.43h-28.4a20.5,20.5,0,0,1-3.73,6.36c-3.37,4.48-8.22,6.35-14.58,6.35a19.71,19.71,0,0,1-14.94-6.35c-4.11-4.12-6-9.72-6-16.82,0-6.73,1.87-12.33,6-16.81a22.22,22.22,0,0,1,14.94-5.61"/></clipPath><clipPath id="clip-path-62"><path d="M2405.48,518.26a20.56,20.56,0,0,0,15.32,6.35,19.74,19.74,0,0,0,14.95-6.35c4.11-4.11,6-9.71,6-16.81s-1.87-12.33-6-16.82-9-6.35-14.95-6.35a19.71,19.71,0,0,0-14.94,6.35c-4.11,4.11-6,9.72-6,16.82S2401.75,514.15,2405.48,518.26Zm49.33,30.27-11.59-9.34a56,56,0,0,1-7.1,5.6,33.88,33.88,0,0,1-19.43,5.61c-12.7,0-23.16-4.49-31.76-13.83s-13.08-20.92-13.08-35.12,4.49-25.78,13.08-35.13,19.06-13.82,31.76-13.82a34,34,0,0,1,19.43,5.6,43.66,43.66,0,0,1,6,5.61h.75l1.87-9.34h23.91v94.16Z"/></clipPath><clipPath id="clip-path-63"><polygon points="2545.98 456.24 2514.96 497.71 2514.96 465.58 2514.96 419.62 2487.69 419.62 2487.69 502.19 2487.69 548.53 2514.96 548.53 2514.96 539.19 2514.96 507.05 2545.98 548.53 2577.74 548.53 2543.36 502.19 2577.74 456.24 2545.98 456.24"/></clipPath><clipPath id="clip-path-64"><path d="M1999.69,454.37a14.15,14.15,0,0,0-7.85,2.61l-7.47,5.61-11.21-8.6h-16.07v94.17h27.28V497a16.34,16.34,0,0,1,16.44-16.44h16.44V454.74h-17.56Z"/></clipPath><clipPath id="clip-path-65"><path d="M1893.57,548.53V480.15H1879V454.37h14.57V441.66c0-16.44,9-25.78,26.53-25.78H1941v22.79H1927.2c-4.11,0-6.35,2.25-6.35,6.36v9.34H1941v25.78h-20.18v68.38Z"/></clipPath><clipPath id="clip-path-66"><path d="M2093.11,506.31c0,5.23-1.5,9.34-4.86,12.7a16.63,16.63,0,0,1-12.33,4.86c-5.23,0-9.34-1.5-12.33-4.86-3.37-3.36-4.86-7.47-4.86-12.7V454.74h-27.28v57.17c0,11.58,3.37,20.93,10.46,28s16.07,10.84,26.91,10.84a20,20,0,0,0,4.86-.37,27.87,27.87,0,0,0,14.19-5.61l6-4.48,11.21,8.59h16.07V454.74h-27.28v51.57Z"/></clipPath><clipPath id="clip-path-67"><polygon points="2038.55 647.17 2038.55 636.71 2028.46 618.03 2032.95 618.03 2040.42 631.48 2041.17 631.48 2048.27 618.03 2053.12 618.03 2043.04 636.71 2043.04 647.17 2038.55 647.17"/></clipPath><clipPath id="clip-path-68"><path d="M2082.64,624.75a9.08,9.08,0,0,0-13.45,0c-1.87,1.87-2.61,4.49-2.61,7.85s.74,6,2.61,7.85a9.06,9.06,0,0,0,13.45,0c1.87-1.87,2.62-4.49,2.62-7.85A13.17,13.17,0,0,0,2082.64,624.75Zm2.62,18.69a12.77,12.77,0,0,1-9.34,4.11,12.15,12.15,0,0,1-9.34-4.11c-2.62-2.62-3.74-6.35-3.74-10.84s1.12-7.85,3.74-10.83a12.7,12.7,0,0,1,9.34-4.11,12.13,12.13,0,0,1,9.34,4.11c2.61,2.61,3.74,6.35,3.74,10.83S2087.87,640.82,2085.26,643.44Z"/></clipPath><clipPath id="clip-path-69"><path d="M2102.45,635.59V618h4.11v17.56a9.15,9.15,0,0,0,1.87,5.61,6.57,6.57,0,0,0,4.85,2.24,6,6,0,0,0,4.86-2.24c1.5-1.5,1.87-3.37,1.87-5.61V618h4.11v17.56a12.58,12.58,0,0,1-3,8.59,11.71,11.71,0,0,1-16.44,0A16.88,16.88,0,0,1,2102.45,635.59Z"/></clipPath><clipPath id="clip-path-70"><path d="M2143.55,632.6h8.22a3.4,3.4,0,0,0,3-1.49,6.8,6.8,0,0,0,0-7.48,3.4,3.4,0,0,0-3-1.49h-8.22Zm-4.48,14.57V618h12.7a7.47,7.47,0,0,1,6,2.61,11.23,11.23,0,0,1,0,13.46,7,7,0,0,1-6,2.61h-1.12l10.09,10.46h-5.23l-10.09-10.46h-1.87v10.46Z"/></clipPath><clipPath id="clip-path-71"><path d="M2199.22,636h5.61l1.49-6.72h-5.6Zm-6,11.21,1.49-7.47h-5.6l.74-3.74h5.61l1.49-6.72h-5.6l.74-3.74h5.61l1.49-7.47H2203l-1.49,7.47h5.6l1.5-7.47h3.73l-1.49,7.47h5.6l-.74,3.74h-5.61l-1.49,6.72h5.6l-.75,3.74h-5.6l-1.5,7.47h-3.73l1.49-7.47h-5.6l-1.5,7.47Z"/></clipPath><clipPath id="clip-path-72"><path d="M2232.11,647.17V625.5h-5.61v-4.11H2231a1,1,0,0,0,1.12-1.12V618.4h4.11v29.15h-4.11Z"/></clipPath><clipPath id="clip-path-73"><path d="M2269.1,647.17V618h9.71a13.56,13.56,0,0,1,9.72,4.11c2.61,2.61,3.73,6.35,3.73,10.46s-1.12,7.85-3.73,10.46a13,13,0,0,1-9.72,4.11Zm4.11-4.11h5.6a9.36,9.36,0,0,0,6.73-3c1.87-1.86,2.61-4.48,2.61-7.47s-.74-5.6-2.61-7.47a9.36,9.36,0,0,0-6.73-3h-5.6Z"/></clipPath><clipPath id="clip-path-74"><polygon points="2305.72 647.17 2305.72 618.03 2324.03 618.03 2324.03 622.14 2309.83 622.14 2309.83 630.73 2323.28 630.73 2323.28 634.84 2309.83 634.84 2309.83 643.06 2324.03 643.06 2324.03 647.17 2305.72 647.17"/></clipPath><clipPath id="clip-path-75"><polygon points="2344.95 647.17 2334.86 618.03 2339.72 618.03 2347.57 642.32 2348.31 642.32 2356.53 618.03 2361.02 618.03 2351.3 647.17 2344.95 647.17"/></clipPath><clipPath id="clip-path-76"><polygon points="2395.02 647.17 2395.02 622.14 2386.05 622.14 2386.05 618.03 2408.1 618.03 2408.1 622.14 2399.13 622.14 2399.13 647.17 2395.02 647.17"/></clipPath><clipPath id="clip-path-77"><polygon points="2420.43 647.17 2420.43 618.03 2438.74 618.03 2438.74 622.14 2424.54 622.14 2424.54 630.73 2437.99 630.73 2437.99 634.84 2424.54 634.84 2424.54 643.06 2438.74 643.06 2438.74 647.17 2420.43 647.17"/></clipPath><clipPath id="clip-path-78"><path d="M2457.79,636.34h10.09l-4.48-13.45h-.75Zm-8.22,10.83L2459.66,618H2466l10.08,29.14h-4.48l-2.24-6.72h-12.71l-2.24,6.72Z"/></clipPath><clipPath id="clip-path-79"><polygon points="2488.06 647.17 2488.06 618.03 2495.16 618.03 2502.63 640.82 2503.38 640.82 2510.85 618.03 2517.95 618.03 2517.95 647.17 2513.84 647.17 2513.84 625.13 2513.1 625.13 2505.62 647.17 2500.02 647.17 2492.92 625.13 2492.17 625.13 2492.17 647.17 2488.06 647.17"/></clipPath><clipPath id="clip-path-80"><path d="M2143.43-244.72h18.68a8.46,8.46,0,0,0,8.6-8.6v-19.05H2152a8.45,8.45,0,0,0-8.59,8.59Z"/></clipPath><clipPath id="clip-path-81"><path d="M2154.64-140.47h16.07v-82.95a11,11,0,0,0-11.21-11.21h-16.07v82.95A11,11,0,0,0,2154.64-140.47Z"/></clipPath><clipPath id="clip-path-82"><path d="M2229.37-264.15h-27.28v29.52h-14.57v25.78h14.57v42.6c0,17.18,9,25.78,26.53,25.78h22.05v-25.78H2236.1c-4.11,0-6.36-2.25-6.36-6.36v-35.87h20.93v-25.78h-20.93v-29.89Z"/></clipPath><clipPath id="clip-path-83"><path d="M2310.45-210.72a19,19,0,0,1,14.58,6.35,35.52,35.52,0,0,1,3.73,6.36h28.4a48.45,48.45,0,0,0-7.85-19.43c-9.34-13.08-22.42-19.43-38.86-19.43-14.2,0-25.78,4.48-34.75,13.82s-13.45,20.93-13.45,35.12,4.49,26.16,13.45,35.13c9,9.34,20.55,13.82,34.75,13.82,16.82,0,29.9-6.35,38.86-19.43a46.46,46.46,0,0,0,7.85-19.43h-28.4a20.5,20.5,0,0,1-3.73,6.36c-3.37,4.48-8.22,6.35-14.58,6.35a19.71,19.71,0,0,1-14.94-6.35c-4.11-4.12-6-9.72-6-16.82,0-6.73,1.87-12.33,6-16.81a22.22,22.22,0,0,1,14.94-5.61"/></clipPath><clipPath id="clip-path-84"><path d="M2406.48-170.74a20.56,20.56,0,0,0,15.32,6.35,19.74,19.74,0,0,0,14.95-6.35c4.11-4.11,6-9.71,6-16.81s-1.87-12.33-6-16.82-9-6.35-14.95-6.35a19.71,19.71,0,0,0-14.94,6.35c-4.11,4.11-6,9.72-6,16.82S2402.75-174.85,2406.48-170.74Zm49.33,30.27-11.59-9.34a56,56,0,0,1-7.1,5.6,33.88,33.88,0,0,1-19.43,5.61c-12.7,0-23.16-4.49-31.76-13.83s-13.08-20.92-13.08-35.12,4.49-25.78,13.08-35.13,19.06-13.82,31.76-13.82a34,34,0,0,1,19.43,5.6,43.66,43.66,0,0,1,6,5.61h.75l1.87-9.34h23.91v94.16Z"/></clipPath><clipPath id="clip-path-85"><polygon points="2546.98 -232.76 2515.96 -191.29 2515.96 -223.42 2515.96 -269.38 2488.69 -269.38 2488.69 -186.81 2488.69 -140.47 2515.96 -140.47 2515.96 -149.81 2515.96 -181.95 2546.98 -140.47 2578.74 -140.47 2544.36 -186.81 2578.74 -232.76 2546.98 -232.76"/></clipPath><clipPath id="clip-path-86"><path d="M2000.69-234.63a14.15,14.15,0,0,0-7.85,2.61l-7.47,5.61-11.21-8.6h-16.07v94.17h27.28V-192a16.34,16.34,0,0,1,16.44-16.44h16.44v-25.78h-17.56Z"/></clipPath><clipPath id="clip-path-87"><path d="M1894.57-140.47v-68.38H1880v-25.78h14.57v-12.71c0-16.44,9-25.78,26.53-25.78H1942v22.79H1928.2c-4.11,0-6.35,2.25-6.35,6.36v9.34H1942v25.78h-20.18v68.38Z"/></clipPath><clipPath id="clip-path-88"><path d="M2094.11-182.69c0,5.23-1.5,9.34-4.86,12.7a16.63,16.63,0,0,1-12.33,4.86c-5.23,0-9.34-1.5-12.33-4.86-3.37-3.36-4.86-7.47-4.86-12.7v-51.57h-27.28v57.17c0,11.58,3.37,20.93,10.46,28s16.07,10.84,26.91,10.84a20,20,0,0,0,4.86-.37,27.87,27.87,0,0,0,14.19-5.61l6-4.48,11.21,8.59h16.07v-94.16h-27.28v51.57Z"/></clipPath><clipPath id="clip-path-89"><path d="M1179.43,444.28h18.68a8.46,8.46,0,0,0,8.6-8.6V416.63H1188a8.45,8.45,0,0,0-8.59,8.59Z"/></clipPath><clipPath id="clip-path-90"><path d="M1190.64,548.53h16.07V465.58a11,11,0,0,0-11.21-11.21h-16.07v83A11,11,0,0,0,1190.64,548.53Z"/></clipPath><clipPath id="clip-path-91"><path d="M1265.37,424.85h-27.28v29.52h-14.57v25.78h14.57v42.6c0,17.18,9,25.78,26.53,25.78h22.05V522.75H1272.1c-4.11,0-6.36-2.25-6.36-6.36V480.52h20.93V454.74h-20.93V424.85Z"/></clipPath><clipPath id="clip-path-92"><path d="M1346.45,478.28a19,19,0,0,1,14.58,6.35,35.52,35.52,0,0,1,3.73,6.36h28.4a48.45,48.45,0,0,0-7.85-19.43c-9.34-13.08-22.42-19.43-38.86-19.43-14.2,0-25.78,4.48-34.75,13.82s-13.45,20.93-13.45,35.12,4.49,26.16,13.45,35.13c9,9.34,20.55,13.82,34.75,13.82,16.82,0,29.9-6.35,38.86-19.43a46.46,46.46,0,0,0,7.85-19.43h-28.4a20.5,20.5,0,0,1-3.73,6.36c-3.37,4.48-8.22,6.35-14.58,6.35a19.71,19.71,0,0,1-14.94-6.35c-4.11-4.12-6-9.72-6-16.82,0-6.73,1.87-12.33,6-16.81a22.22,22.22,0,0,1,14.94-5.61"/></clipPath><clipPath id="clip-path-93"><path d="M1442.48,518.26a20.56,20.56,0,0,0,15.32,6.35,19.74,19.74,0,0,0,15-6.35c4.11-4.11,6-9.71,6-16.81s-1.87-12.33-6-16.82-9-6.35-15-6.35a19.71,19.71,0,0,0-14.94,6.35c-4.11,4.11-6,9.72-6,16.82S1438.75,514.15,1442.48,518.26Zm49.33,30.27-11.59-9.34a56,56,0,0,1-7.1,5.6,33.88,33.88,0,0,1-19.43,5.61c-12.7,0-23.16-4.49-31.76-13.83s-13.08-20.92-13.08-35.12,4.49-25.78,13.08-35.13,19.06-13.82,31.76-13.82a34,34,0,0,1,19.43,5.6,43.66,43.66,0,0,1,6,5.61h.75l1.87-9.34h23.91v94.16Z"/></clipPath><clipPath id="clip-path-94"><polygon points="1582.98 456.24 1551.96 497.71 1551.96 465.58 1551.96 419.62 1524.69 419.62 1524.69 502.19 1524.69 548.53 1551.96 548.53 1551.96 539.19 1551.96 507.05 1582.98 548.53 1614.74 548.53 1580.36 502.19 1614.74 456.24 1582.98 456.24"/></clipPath><clipPath id="clip-path-95"><path d="M1036.69,454.37a14.15,14.15,0,0,0-7.85,2.61l-7.47,5.61-11.21-8.6H994.09v94.17h27.28V497a16.34,16.34,0,0,1,16.44-16.44h16.44V454.74h-17.56Z"/></clipPath><clipPath id="clip-path-96"><path d="M930.57,548.53V480.15H916V454.37h14.57V441.66c0-16.44,9-25.78,26.53-25.78H978v22.79H964.2c-4.11,0-6.35,2.25-6.35,6.36v9.34H978v25.78H957.85v68.38Z"/></clipPath><clipPath id="clip-path-97"><path d="M1130.11,506.31c0,5.23-1.5,9.34-4.86,12.7a16.63,16.63,0,0,1-12.33,4.86c-5.23,0-9.34-1.5-12.33-4.86-3.37-3.36-4.86-7.47-4.86-12.7V454.74h-27.28v57.17c0,11.58,3.37,20.93,10.46,28s16.07,10.84,26.91,10.84a20,20,0,0,0,4.86-.37,27.87,27.87,0,0,0,14.19-5.61l6-4.48,11.21,8.59h16.07V454.74h-27.28v51.57Z"/></clipPath><clipPath id="clip-path-98"><polygon points="1075.55 647.17 1075.55 636.71 1065.46 618.03 1069.95 618.03 1077.42 631.48 1078.17 631.48 1085.27 618.03 1090.12 618.03 1080.04 636.71 1080.04 647.17 1075.55 647.17"/></clipPath><clipPath id="clip-path-99"><path d="M1119.64,624.75a9.08,9.08,0,0,0-13.45,0c-1.87,1.87-2.61,4.49-2.61,7.85s.74,6,2.61,7.85a9.06,9.06,0,0,0,13.45,0c1.87-1.87,2.62-4.49,2.62-7.85A13.17,13.17,0,0,0,1119.64,624.75Zm2.62,18.69a12.77,12.77,0,0,1-9.34,4.11,12.15,12.15,0,0,1-9.34-4.11c-2.62-2.62-3.74-6.35-3.74-10.84s1.12-7.85,3.74-10.83a12.7,12.7,0,0,1,9.34-4.11,12.13,12.13,0,0,1,9.34,4.11c2.61,2.61,3.74,6.35,3.74,10.83S1124.87,640.82,1122.26,643.44Z"/></clipPath><clipPath id="clip-path-100"><path d="M1139.45,635.59V618h4.11v17.56a9.15,9.15,0,0,0,1.87,5.61,6.57,6.57,0,0,0,4.85,2.24,6,6,0,0,0,4.86-2.24c1.5-1.5,1.87-3.37,1.87-5.61V618h4.11v17.56a12.58,12.58,0,0,1-3,8.59,11.71,11.71,0,0,1-16.44,0A16.88,16.88,0,0,1,1139.45,635.59Z"/></clipPath><clipPath id="clip-path-101"><path d="M1180.55,632.6h8.22a3.4,3.4,0,0,0,3-1.49,6.8,6.8,0,0,0,0-7.48,3.4,3.4,0,0,0-3-1.49h-8.22Zm-4.48,14.57V618h12.7a7.47,7.47,0,0,1,6,2.61,11.23,11.23,0,0,1,0,13.46,7,7,0,0,1-6,2.61h-1.12l10.09,10.46h-5.23l-10.09-10.46h-1.87v10.46Z"/></clipPath><clipPath id="clip-path-102"><path d="M1236.22,636h5.61l1.49-6.72h-5.6Zm-6,11.21,1.49-7.47h-5.6l.74-3.74h5.61l1.49-6.72h-5.6l.74-3.74h5.61l1.49-7.47H1240l-1.49,7.47h5.6l1.5-7.47h3.73l-1.49,7.47h5.6l-.74,3.74h-5.61l-1.49,6.72h5.6l-.75,3.74h-5.6l-1.5,7.47h-3.73l1.49-7.47h-5.6l-1.5,7.47Z"/></clipPath><clipPath id="clip-path-103"><path d="M1269.11,647.17V625.5h-5.61v-4.11H1268a1,1,0,0,0,1.12-1.12V618.4h4.11v29.15h-4.11Z"/></clipPath><clipPath id="clip-path-104"><path d="M1306.1,647.17V618h9.71a13.56,13.56,0,0,1,9.72,4.11c2.61,2.61,3.73,6.35,3.73,10.46s-1.12,7.85-3.73,10.46a13,13,0,0,1-9.72,4.11Zm4.11-4.11h5.6a9.36,9.36,0,0,0,6.73-3c1.87-1.86,2.61-4.48,2.61-7.47s-.74-5.6-2.61-7.47a9.36,9.36,0,0,0-6.73-3h-5.6Z"/></clipPath><clipPath id="clip-path-105"><polygon points="1342.72 647.17 1342.72 618.03 1361.03 618.03 1361.03 622.14 1346.83 622.14 1346.83 630.73 1360.28 630.73 1360.28 634.84 1346.83 634.84 1346.83 643.06 1361.03 643.06 1361.03 647.17 1342.72 647.17"/></clipPath><clipPath id="clip-path-106"><polygon points="1381.95 647.17 1371.86 618.03 1376.72 618.03 1384.57 642.32 1385.31 642.32 1393.53 618.03 1398.02 618.03 1388.3 647.17 1381.95 647.17"/></clipPath><clipPath id="clip-path-107"><polygon points="1432.02 647.17 1432.02 622.14 1423.05 622.14 1423.05 618.03 1445.1 618.03 1445.1 622.14 1436.13 622.14 1436.13 647.17 1432.02 647.17"/></clipPath><clipPath id="clip-path-108"><polygon points="1457.43 647.17 1457.43 618.03 1475.74 618.03 1475.74 622.14 1461.54 622.14 1461.54 630.73 1474.99 630.73 1474.99 634.84 1461.54 634.84 1461.54 643.06 1475.74 643.06 1475.74 647.17 1457.43 647.17"/></clipPath><clipPath id="clip-path-109"><path d="M1494.79,636.34h10.09l-4.48-13.45h-.75Zm-8.22,10.83L1496.66,618H1503l10.08,29.14h-4.48l-2.24-6.72h-12.71l-2.24,6.72Z"/></clipPath><clipPath id="clip-path-110"><polygon points="1525.06 647.17 1525.06 618.03 1532.16 618.03 1539.63 640.82 1540.38 640.82 1547.85 618.03 1554.95 618.03 1554.95 647.17 1550.84 647.17 1550.84 625.13 1550.1 625.13 1542.62 647.17 1537.02 647.17 1529.92 625.13 1529.17 625.13 1529.17 647.17 1525.06 647.17"/></clipPath><clipPath id="clip-path-111"><path d="M1180.43-244.72h18.68a8.46,8.46,0,0,0,8.6-8.6v-19.05H1189a8.45,8.45,0,0,0-8.59,8.59Z"/></clipPath><clipPath id="clip-path-112"><path d="M1191.64-140.47h16.07v-82.95a11,11,0,0,0-11.21-11.21h-16.07v82.95A11,11,0,0,0,1191.64-140.47Z"/></clipPath><clipPath id="clip-path-113"><path d="M1266.37-264.15h-27.28v29.52h-14.57v25.78h14.57v42.6c0,17.18,9,25.78,26.53,25.78h22.05v-25.78H1273.1c-4.11,0-6.36-2.25-6.36-6.36v-35.87h20.93v-25.78h-20.93v-29.89Z"/></clipPath><clipPath id="clip-path-114"><path d="M1347.45-210.72a19,19,0,0,1,14.58,6.35,35.52,35.52,0,0,1,3.73,6.36h28.4a48.45,48.45,0,0,0-7.85-19.43c-9.34-13.08-22.42-19.43-38.86-19.43-14.2,0-25.78,4.48-34.75,13.82s-13.45,20.93-13.45,35.12,4.49,26.16,13.45,35.13c9,9.34,20.55,13.82,34.75,13.82,16.82,0,29.9-6.35,38.86-19.43a46.46,46.46,0,0,0,7.85-19.43h-28.4a20.5,20.5,0,0,1-3.73,6.36c-3.37,4.48-8.22,6.35-14.58,6.35a19.71,19.71,0,0,1-14.94-6.35c-4.11-4.12-6-9.72-6-16.82,0-6.73,1.87-12.33,6-16.81a22.22,22.22,0,0,1,14.94-5.61"/></clipPath><clipPath id="clip-path-115"><path d="M1443.48-170.74a20.56,20.56,0,0,0,15.32,6.35,19.74,19.74,0,0,0,15-6.35c4.11-4.11,6-9.71,6-16.81s-1.87-12.33-6-16.82-9-6.35-15-6.35a19.71,19.71,0,0,0-14.94,6.35c-4.11,4.11-6,9.72-6,16.82S1439.75-174.85,1443.48-170.74Zm49.33,30.27-11.59-9.34a56,56,0,0,1-7.1,5.6,33.88,33.88,0,0,1-19.43,5.61c-12.7,0-23.16-4.49-31.76-13.83s-13.08-20.92-13.08-35.12,4.49-25.78,13.08-35.13,19.06-13.82,31.76-13.82a34,34,0,0,1,19.43,5.6,43.66,43.66,0,0,1,6,5.61h.75l1.87-9.34h23.91v94.16Z"/></clipPath><clipPath id="clip-path-116"><polygon points="1583.98 -232.76 1552.96 -191.29 1552.96 -223.42 1552.96 -269.38 1525.69 -269.38 1525.69 -186.81 1525.69 -140.47 1552.96 -140.47 1552.96 -149.81 1552.96 -181.95 1583.98 -140.47 1615.74 -140.47 1581.36 -186.81 1615.74 -232.76 1583.98 -232.76"/></clipPath><clipPath id="clip-path-117"><path d="M1037.69-234.63a14.15,14.15,0,0,0-7.85,2.61l-7.47,5.61-11.21-8.6H995.09v94.17h27.28V-192a16.34,16.34,0,0,1,16.44-16.44h16.44v-25.78h-17.56Z"/></clipPath><clipPath id="clip-path-118"><path d="M931.57-140.47v-68.38H917v-25.78h14.57v-12.71c0-16.44,9-25.78,26.53-25.78H979v22.79H965.2c-4.11,0-6.35,2.25-6.35,6.36v9.34H979v25.78H958.85v68.38Z"/></clipPath><clipPath id="clip-path-119"><path d="M1131.11-182.69c0,5.23-1.5,9.34-4.86,12.7a16.63,16.63,0,0,1-12.33,4.86c-5.23,0-9.34-1.5-12.33-4.86-3.37-3.36-4.86-7.47-4.86-12.7v-51.57h-27.28v57.17c0,11.58,3.37,20.93,10.46,28s16.07,10.84,26.91,10.84a20,20,0,0,0,4.86-.37,27.87,27.87,0,0,0,14.19-5.61l6-4.48,11.21,8.59h16.07v-94.16h-27.28v51.57Z"/></clipPath></defs><path id="SVGID" class="cls-3" d="M263.43,444.28h18.68a8.46,8.46,0,0,0,8.6-8.6V416.63H272a8.45,8.45,0,0,0-8.59,8.59Z"/><path class="cls-1" d="M263.43,444.28h18.68a8.46,8.46,0,0,0,8.6-8.6V416.63H272a8.45,8.45,0,0,0-8.59,8.59Z"/><g class="cls-4"><rect id="SVGID-2" data-name="SVGID" class="cls-1" x="-1173.28" y="-798.51" width="3146.19" height="2223.26"/><rect class="cls-1" x="-1173.28" y="-798.51" width="3146.19" height="2223.26"/><g class="cls-5"><rect class="cls-1" x="259.69" y="413.26" width="34.75" height="35.12"/></g></g><path id="SVGID-3" data-name="SVGID" class="cls-3" d="M274.64,548.53h16.07V465.58a11,11,0,0,0-11.21-11.21H263.43v83A11,11,0,0,0,274.64,548.53Z"/><path class="cls-1" d="M274.64,548.53h16.07V465.58a11,11,0,0,0-11.21-11.21H263.43v83A11,11,0,0,0,274.64,548.53Z"/><g class="cls-6"><rect id="SVGID-4" data-name="SVGID" class="cls-1" x="-1173.28" y="-798.51" width="3146.19" height="2223.26"/><rect class="cls-1" x="-1173.28" y="-798.51" width="3146.19" height="2223.26"/><g class="cls-5"><rect class="cls-1" x="259.69" y="450.63" width="34.75" height="101.63"/></g></g><path id="SVGID-5" data-name="SVGID" class="cls-3" d="M349.37,424.85H322.09v29.52H307.52v25.78h14.57v42.6c0,17.18,9,25.78,26.53,25.78h22.05V522.75H356.1c-4.11,0-6.36-2.25-6.36-6.36V480.52h20.93V454.74H349.74V424.85Z"/><path class="cls-1" d="M349.37,424.85H322.09v29.52H307.52v25.78h14.57v42.6c0,17.18,9,25.78,26.53,25.78h22.05V522.75H356.1c-4.11,0-6.36-2.25-6.36-6.36V480.52h20.93V454.74H349.74V424.85Z"/><g class="cls-7"><rect id="SVGID-6" data-name="SVGID" class="cls-1" x="-1173.28" y="-798.51" width="3146.19" height="2223.26"/><rect class="cls-1" x="-1173.28" y="-798.51" width="3146.19" height="2223.26"/><g class="cls-5"><rect class="cls-1" x="303.41" y="421.11" width="70.62" height="131.15"/></g></g><path id="SVGID-7" data-name="SVGID" class="cls-3" d="M430.45,478.28A19,19,0,0,1,445,484.63a35.52,35.52,0,0,1,3.73,6.36h28.4a48.45,48.45,0,0,0-7.85-19.43c-9.34-13.08-22.42-19.43-38.86-19.43-14.2,0-25.78,4.48-34.75,13.82s-13.45,20.93-13.45,35.12,4.49,26.16,13.45,35.13c9,9.34,20.55,13.82,34.75,13.82,16.82,0,29.9-6.35,38.86-19.43a46.46,46.46,0,0,0,7.85-19.43h-28.4a20.5,20.5,0,0,1-3.73,6.36c-3.37,4.48-8.22,6.35-14.58,6.35a19.71,19.71,0,0,1-14.94-6.35c-4.11-4.12-6-9.72-6-16.82,0-6.73,1.87-12.33,6-16.81a22.22,22.22,0,0,1,14.94-5.61"/><path class="cls-1" d="M430.45,478.28A19,19,0,0,1,445,484.63a35.52,35.52,0,0,1,3.73,6.36h28.4a48.45,48.45,0,0,0-7.85-19.43c-9.34-13.08-22.42-19.43-38.86-19.43-14.2,0-25.78,4.48-34.75,13.82s-13.45,20.93-13.45,35.12,4.49,26.16,13.45,35.13c9,9.34,20.55,13.82,34.75,13.82,16.82,0,29.9-6.35,38.86-19.43a46.46,46.46,0,0,0,7.85-19.43h-28.4a20.5,20.5,0,0,1-3.73,6.36c-3.37,4.48-8.22,6.35-14.58,6.35a19.71,19.71,0,0,1-14.94-6.35c-4.11-4.12-6-9.72-6-16.82,0-6.73,1.87-12.33,6-16.81a22.22,22.22,0,0,1,14.94-5.61"/><g class="cls-8"><rect id="SVGID-8" data-name="SVGID" class="cls-1" x="-1173.28" y="-798.51" width="3146.19" height="2223.26"/><rect class="cls-1" x="-1173.28" y="-798.51" width="3146.19" height="2223.26"/><g class="cls-5"><rect class="cls-1" x="378.51" y="448.76" width="102.38" height="105.37"/></g></g><path id="SVGID-9" data-name="SVGID" class="cls-1" d="M526.48,518.26a20.56,20.56,0,0,0,15.32,6.35,19.74,19.74,0,0,0,15-6.35c4.11-4.11,6-9.71,6-16.81s-1.87-12.33-6-16.82-9-6.35-15-6.35a19.71,19.71,0,0,0-14.94,6.35c-4.11,4.11-6,9.72-6,16.82S522.75,514.15,526.48,518.26Zm49.33,30.27-11.59-9.34a56,56,0,0,1-7.1,5.6,33.88,33.88,0,0,1-19.43,5.61c-12.7,0-23.16-4.49-31.76-13.83s-13.08-20.92-13.08-35.12,4.49-25.78,13.08-35.13S525,452.5,537.69,452.5a34,34,0,0,1,19.43,5.6,43.66,43.66,0,0,1,6,5.61h.75l1.87-9.34h23.91v94.16Z"/><path class="cls-1" d="M526.48,518.26a20.56,20.56,0,0,0,15.32,6.35,19.74,19.74,0,0,0,15-6.35c4.11-4.11,6-9.71,6-16.81s-1.87-12.33-6-16.82-9-6.35-15-6.35a19.71,19.71,0,0,0-14.94,6.35c-4.11,4.11-6,9.72-6,16.82S522.75,514.15,526.48,518.26Zm49.33,30.27-11.59-9.34a56,56,0,0,1-7.1,5.6,33.88,33.88,0,0,1-19.43,5.61c-12.7,0-23.16-4.49-31.76-13.83s-13.08-20.92-13.08-35.12,4.49-25.78,13.08-35.13S525,452.5,537.69,452.5a34,34,0,0,1,19.43,5.6,43.66,43.66,0,0,1,6,5.61h.75l1.87-9.34h23.91v94.16Z"/><g class="cls-9"><rect id="SVGID-10" data-name="SVGID" class="cls-1" x="-1173.28" y="-798.51" width="3146.19" height="2223.26"/><rect class="cls-1" x="-1173.28" y="-798.51" width="3146.19" height="2223.26"/><g class="cls-5"><rect class="cls-1" x="489.49" y="449.14" width="104.25" height="105.37"/></g></g><path id="SVGID-11" data-name="SVGID" class="cls-3" d="M786.17,466c-9-9-20.17-13.45-34-13.45-14.2,0-25.78,4.48-34.75,13.82S704,487.25,704,501.45s4.48,26.15,13.45,35.12c9,9.34,20.55,13.83,34.75,13.83s25.78-4.86,35.5-14.95A45.58,45.58,0,0,0,797,520.13H769.73c-.74,1.5-2.24,2.62-4.11,4.11a22.6,22.6,0,0,1-13.07,4.11q-9,0-14.58-5.6a20.85,20.85,0,0,1-6.35-13.83h67.63l.38-2.24a53.42,53.42,0,0,0,.37-7.1C799.63,486.13,795.14,474.92,786.17,466Zm-54.92,26.53c2.61-12.33,9.71-18.31,20.92-18.31s18.31,6,20.93,18.31Z"/><path class="cls-1" d="M786.17,466c-9-9-20.17-13.45-34-13.45-14.2,0-25.78,4.48-34.75,13.82S704,487.25,704,501.45s4.48,26.15,13.45,35.12c9,9.34,20.55,13.83,34.75,13.83s25.78-4.86,35.5-14.95A45.58,45.58,0,0,0,797,520.13H769.73c-.74,1.5-2.24,2.62-4.11,4.11a22.6,22.6,0,0,1-13.07,4.11q-9,0-14.58-5.6a20.85,20.85,0,0,1-6.35-13.83h67.63l.38-2.24a53.42,53.42,0,0,0,.37-7.1C799.63,486.13,795.14,474.92,786.17,466Zm-54.92,26.53c2.61-12.33,9.71-18.31,20.92-18.31s18.31,6,20.93,18.31Z"/><g class="cls-10"><rect id="SVGID-12" data-name="SVGID" class="cls-1" x="703.6" y="452.5" width="96.03" height="97.9"/><rect class="cls-1" x="703.6" y="452.5" width="96.03" height="97.9"/><g class="cls-11"><rect class="cls-1" x="699.86" y="448.76" width="103.5" height="105.37"/></g></g><polygon id="SVGID-13" data-name="SVGID" class="cls-3" points="666.98 456.24 635.96 497.71 635.96 465.58 635.96 419.62 608.69 419.62 608.69 502.19 608.69 548.53 635.96 548.53 635.96 539.19 635.96 507.05 666.98 548.53 698.74 548.53 664.36 502.19 698.74 456.24 666.98 456.24"/><polygon class="cls-1" points="666.98 456.24 635.96 497.71 635.96 465.58 635.96 419.62 608.69 419.62 608.69 502.19 608.69 548.53 635.96 548.53 635.96 539.19 635.96 507.05 666.98 548.53 698.74 548.53 664.36 502.19 698.74 456.24 666.98 456.24"/><g class="cls-12"><rect id="SVGID-14" data-name="SVGID" class="cls-1" x="-1173.28" y="-798.51" width="3146.19" height="2223.26"/><rect class="cls-1" x="-1173.28" y="-798.51" width="3146.19" height="2223.26"/><g class="cls-5"><rect class="cls-1" x="604.95" y="415.88" width="97.52" height="136.76"/></g></g><path id="SVGID-15" data-name="SVGID" class="cls-3" d="M120.69,454.37a14.15,14.15,0,0,0-7.85,2.61l-7.47,5.61L94.16,454H78.09v94.17h27.28V497a16.34,16.34,0,0,1,16.44-16.44h16.44V454.74H120.69Z"/><path class="cls-1" d="M120.69,454.37a14.15,14.15,0,0,0-7.85,2.61l-7.47,5.61L94.16,454H78.09v94.17h27.28V497a16.34,16.34,0,0,1,16.44-16.44h16.44V454.74H120.69Z"/><g class="cls-13"><rect id="SVGID-16" data-name="SVGID" class="cls-1" x="-1173.28" y="-798.51" width="3146.19" height="2223.26"/><rect class="cls-1" x="-1173.28" y="-798.51" width="3146.19" height="2223.26"/><g class="cls-5"><rect class="cls-1" x="74.36" y="450.63" width="67.63" height="101.63"/></g></g><path id="SVGID-17" data-name="SVGID" class="cls-1" d="M14.57,548.53V480.15H0V454.37H14.57V441.66c0-16.44,9-25.78,26.53-25.78H62v22.79H48.2c-4.11,0-6.35,2.25-6.35,6.36v9.34H62v25.78H41.85v68.38Z"/><path class="cls-1" d="M14.57,548.53V480.15H0V454.37H14.57V441.66c0-16.44,9-25.78,26.53-25.78H62v22.79H48.2c-4.11,0-6.35,2.25-6.35,6.36v9.34H62v25.78H41.85v68.38Z"/><g class="cls-14"><rect id="SVGID-18" data-name="SVGID" class="cls-1" x="-1173.28" y="-798.51" width="3146.19" height="2223.26"/><rect class="cls-1" x="-1173.28" y="-798.51" width="3146.19" height="2223.26"/><g class="cls-5"><rect class="cls-1" x="-3.74" y="412.14" width="69.5" height="140.12"/></g></g><path id="SVGID-19" data-name="SVGID" class="cls-3" d="M214.11,506.31c0,5.23-1.5,9.34-4.86,12.7a16.63,16.63,0,0,1-12.33,4.86c-5.23,0-9.34-1.5-12.33-4.86-3.37-3.36-4.86-7.47-4.86-12.7V454.74H152.45v57.17c0,11.58,3.37,20.93,10.46,28s16.07,10.84,26.91,10.84a20,20,0,0,0,4.86-.37,27.87,27.87,0,0,0,14.19-5.61l6-4.48,11.21,8.59h16.07V454.74H214.85v51.57Z"/><path class="cls-1" d="M214.11,506.31c0,5.23-1.5,9.34-4.86,12.7a16.63,16.63,0,0,1-12.33,4.86c-5.23,0-9.34-1.5-12.33-4.86-3.37-3.36-4.86-7.47-4.86-12.7V454.74H152.45v57.17c0,11.58,3.37,20.93,10.46,28s16.07,10.84,26.91,10.84a20,20,0,0,0,4.86-.37,27.87,27.87,0,0,0,14.19-5.61l6-4.48,11.21,8.59h16.07V454.74H214.85v51.57Z"/><g class="cls-15"><rect id="SVGID-20" data-name="SVGID" class="cls-1" x="-1173.28" y="-798.51" width="3146.19" height="2223.26"/><rect class="cls-1" x="-1173.28" y="-798.51" width="3146.19" height="2223.26"/><g class="cls-5"><rect class="cls-1" x="148.34" y="450.63" width="97.15" height="103.5"/></g></g><path id="SVGID-21" data-name="SVGID" class="cls-16" d="M319.48,19.06c-31.39,2.61-56.43,30.64-56.43,62V300.79l217.47-19.05c31.39-2.62,56.43-30.64,56.43-62V0Zm99,145.72c0,10.47-8.6,19.81-18.69,20.55l-27.27,2.25v27.65c0,10.46-8.6,19.8-18.69,20.55L326.58,238V164.78c0-10.46,8.59-19.8,18.68-20.55l73.24-6.35Zm54.55-74.73c0,10.46-8.59,19.81-18.68,20.55L349,119.94V92.29c0-10.46,8.59-19.8,18.68-20.55L473.05,62.4Z"/><path class="cls-2" d="M319.48,19.06c-31.39,2.61-56.43,30.64-56.43,62V300.79l217.47-19.05c31.39-2.62,56.43-30.64,56.43-62V0Zm99,145.72c0,10.47-8.6,19.81-18.69,20.55l-27.27,2.25v27.65c0,10.46-8.6,19.8-18.69,20.55L326.58,238V164.78c0-10.46,8.59-19.8,18.68-20.55l73.24-6.35Zm54.55-74.73c0,10.46-8.59,19.81-18.68,20.55L349,119.94V92.29c0-10.46,8.59-19.8,18.68-20.55L473.05,62.4Z"/><g class="cls-17"><rect id="SVGID-22" data-name="SVGID" class="cls-2" x="262.68" width="274.26" height="301.17"/><rect class="cls-2" x="262.68" width="274.26" height="301.17"/><g class="cls-18"><rect class="cls-2" x="258.94" y="-3.74" width="281.74" height="308.64"/></g></g><polygon id="SVGID-23" data-name="SVGID" class="cls-1" points="159.55 647.17 159.55 636.71 149.46 618.03 153.95 618.03 161.42 631.48 162.17 631.48 169.27 618.03 174.12 618.03 164.03 636.71 164.03 647.17 159.55 647.17"/><polygon class="cls-1" points="159.55 647.17 159.55 636.71 149.46 618.03 153.95 618.03 161.42 631.48 162.17 631.48 169.27 618.03 174.12 618.03 164.03 636.71 164.03 647.17 159.55 647.17"/><g class="cls-19"><rect id="SVGID-24" data-name="SVGID" class="cls-1" x="-1173.28" y="-798.51" width="3146.19" height="2223.26"/><rect class="cls-1" x="-1173.28" y="-798.51" width="3146.19" height="2223.26"/><g class="cls-5"><rect class="cls-20" x="145.73" y="614.29" width="32.13" height="36.62"/></g></g><path id="SVGID-25" data-name="SVGID" class="cls-1" d="M203.64,624.75a9.08,9.08,0,0,0-13.45,0c-1.87,1.87-2.61,4.49-2.61,7.85s.74,6,2.61,7.85a9.06,9.06,0,0,0,13.45,0c1.87-1.87,2.62-4.49,2.62-7.85A13.17,13.17,0,0,0,203.64,624.75Zm2.62,18.69a12.77,12.77,0,0,1-9.34,4.11,12.15,12.15,0,0,1-9.34-4.11c-2.62-2.62-3.74-6.35-3.74-10.84s1.12-7.85,3.74-10.83a12.7,12.7,0,0,1,9.34-4.11,12.13,12.13,0,0,1,9.34,4.11c2.61,2.61,3.74,6.35,3.74,10.83S208.87,640.82,206.26,643.44Z"/><path class="cls-1" d="M203.64,624.75a9.08,9.08,0,0,0-13.45,0c-1.87,1.87-2.61,4.49-2.61,7.85s.74,6,2.61,7.85a9.06,9.06,0,0,0,13.45,0c1.87-1.87,2.62-4.49,2.62-7.85A13.17,13.17,0,0,0,203.64,624.75Zm2.62,18.69a12.77,12.77,0,0,1-9.34,4.11,12.15,12.15,0,0,1-9.34-4.11c-2.62-2.62-3.74-6.35-3.74-10.84s1.12-7.85,3.74-10.83a12.7,12.7,0,0,1,9.34-4.11,12.13,12.13,0,0,1,9.34,4.11c2.61,2.61,3.74,6.35,3.74,10.83S208.87,640.82,206.26,643.44Z"/><g class="cls-21"><rect id="SVGID-26" data-name="SVGID" class="cls-1" x="-1173.28" y="-798.51" width="3146.19" height="2223.26"/><rect class="cls-1" x="-1173.28" y="-798.51" width="3146.19" height="2223.26"/><g class="cls-5"><rect class="cls-20" x="179.73" y="613.92" width="34.38" height="37.37"/></g></g><path id="SVGID-27" data-name="SVGID" class="cls-1" d="M223.45,635.59V618h4.11v17.56a9.15,9.15,0,0,0,1.87,5.61,6.57,6.57,0,0,0,4.85,2.24,6,6,0,0,0,4.86-2.24c1.5-1.5,1.87-3.37,1.87-5.61V618h4.11v17.56a12.58,12.58,0,0,1-3,8.59,11.71,11.71,0,0,1-16.44,0A16.88,16.88,0,0,1,223.45,635.59Z"/><path class="cls-1" d="M223.45,635.59V618h4.11v17.56a9.15,9.15,0,0,0,1.87,5.61,6.57,6.57,0,0,0,4.85,2.24,6,6,0,0,0,4.86-2.24c1.5-1.5,1.87-3.37,1.87-5.61V618h4.11v17.56a12.58,12.58,0,0,1-3,8.59,11.71,11.71,0,0,1-16.44,0A16.88,16.88,0,0,1,223.45,635.59Z"/><g class="cls-22"><rect id="SVGID-28" data-name="SVGID" class="cls-1" x="-1173.28" y="-798.51" width="3146.19" height="2223.26"/><rect class="cls-1" x="-1173.28" y="-798.51" width="3146.19" height="2223.26"/><g class="cls-5"><rect class="cls-20" x="219.71" y="614.29" width="29.89" height="36.99"/></g></g><path id="SVGID-29" data-name="SVGID" class="cls-1" d="M264.55,632.6h8.22a3.4,3.4,0,0,0,3-1.49,6.8,6.8,0,0,0,0-7.48,3.4,3.4,0,0,0-3-1.49h-8.22Zm-4.48,14.57V618h12.7a7.47,7.47,0,0,1,6,2.61,11.23,11.23,0,0,1,0,13.46,7,7,0,0,1-6,2.61h-1.12l10.09,10.46h-5.23l-10.09-10.46h-1.87v10.46Z"/><path class="cls-1" d="M264.55,632.6h8.22a3.4,3.4,0,0,0,3-1.49,6.8,6.8,0,0,0,0-7.48,3.4,3.4,0,0,0-3-1.49h-8.22Zm-4.48,14.57V618h12.7a7.47,7.47,0,0,1,6,2.61,11.23,11.23,0,0,1,0,13.46,7,7,0,0,1-6,2.61h-1.12l10.09,10.46h-5.23l-10.09-10.46h-1.87v10.46Z"/><g class="cls-23"><rect id="SVGID-30" data-name="SVGID" class="cls-1" x="-1173.28" y="-798.51" width="3146.19" height="2223.26"/><rect class="cls-1" x="-1173.28" y="-798.51" width="3146.19" height="2223.26"/><g class="cls-5"><rect class="cls-20" x="256.33" y="614.29" width="29.15" height="36.62"/></g></g><path id="SVGID-31" data-name="SVGID" class="cls-1" d="M320.22,636h5.61l1.49-6.72h-5.6Zm-6,11.21,1.49-7.47h-5.6l.74-3.74h5.61l1.49-6.72h-5.6l.74-3.74h5.61l1.49-7.47H324l-1.49,7.47h5.6l1.5-7.47h3.73l-1.49,7.47h5.6l-.74,3.74h-5.61L329.57,636h5.6l-.75,3.74h-5.6l-1.5,7.47h-3.73l1.49-7.47h-5.6l-1.5,7.47Z"/><path class="cls-1" d="M320.22,636h5.61l1.49-6.72h-5.6Zm-6,11.21,1.49-7.47h-5.6l.74-3.74h5.61l1.49-6.72h-5.6l.74-3.74h5.61l1.49-7.47H324l-1.49,7.47h5.6l1.5-7.47h3.73l-1.49,7.47h5.6l-.74,3.74h-5.61L329.57,636h5.6l-.75,3.74h-5.6l-1.5,7.47h-3.73l1.49-7.47h-5.6l-1.5,7.47Z"/><g class="cls-24"><rect id="SVGID-32" data-name="SVGID" class="cls-1" x="-1173.28" y="-798.51" width="3146.19" height="2223.26"/><rect class="cls-1" x="-1173.28" y="-798.51" width="3146.19" height="2223.26"/><g class="cls-5"><rect class="cls-20" x="306.4" y="614.29" width="34.75" height="36.62"/></g></g><path id="SVGID-33" data-name="SVGID" class="cls-1" d="M353.11,647.17V625.5H347.5v-4.11H352a1,1,0,0,0,1.12-1.12V618.4h4.11v29.15h-4.11Z"/><path class="cls-1" d="M353.11,647.17V625.5H347.5v-4.11H352a1,1,0,0,0,1.12-1.12V618.4h4.11v29.15h-4.11Z"/><g class="cls-25"><rect id="SVGID-34" data-name="SVGID" class="cls-1" x="-1173.28" y="-798.51" width="3146.19" height="2223.26"/><rect class="cls-1" x="-1173.28" y="-798.51" width="3146.19" height="2223.26"/><g class="cls-5"><rect class="cls-20" x="343.76" y="614.29" width="17.56" height="36.62"/></g></g><path id="SVGID-35" data-name="SVGID" class="cls-1" d="M390.1,647.17V618h9.71a13.56,13.56,0,0,1,9.72,4.11c2.61,2.61,3.73,6.35,3.73,10.46s-1.12,7.85-3.73,10.46a13,13,0,0,1-9.72,4.11Zm4.11-4.11h5.6a9.36,9.36,0,0,0,6.73-3c1.87-1.86,2.61-4.48,2.61-7.47s-.74-5.6-2.61-7.47a9.36,9.36,0,0,0-6.73-3h-5.6Z"/><path class="cls-1" d="M390.1,647.17V618h9.71a13.56,13.56,0,0,1,9.72,4.11c2.61,2.61,3.73,6.35,3.73,10.46s-1.12,7.85-3.73,10.46a13,13,0,0,1-9.72,4.11Zm4.11-4.11h5.6a9.36,9.36,0,0,0,6.73-3c1.87-1.86,2.61-4.48,2.61-7.47s-.74-5.6-2.61-7.47a9.36,9.36,0,0,0-6.73-3h-5.6Z"/><g class="cls-26"><rect id="SVGID-36" data-name="SVGID" class="cls-1" x="-1173.28" y="-798.51" width="3146.19" height="2223.26"/><rect class="cls-1" x="-1173.28" y="-798.51" width="3146.19" height="2223.26"/><g class="cls-5"><rect class="cls-20" x="386.36" y="614.29" width="30.64" height="36.62"/></g></g><polygon id="SVGID-37" data-name="SVGID" class="cls-1" points="426.72 647.17 426.72 618.03 445.03 618.03 445.03 622.14 430.83 622.14 430.83 630.73 444.28 630.73 444.28 634.84 430.83 634.84 430.83 643.06 445.03 643.06 445.03 647.17 426.72 647.17"/><polygon class="cls-1" points="426.72 647.17 426.72 618.03 445.03 618.03 445.03 622.14 430.83 622.14 430.83 630.73 444.28 630.73 444.28 634.84 430.83 634.84 430.83 643.06 445.03 643.06 445.03 647.17 426.72 647.17"/><g class="cls-27"><rect id="SVGID-38" data-name="SVGID" class="cls-1" x="-1173.28" y="-798.51" width="3146.19" height="2223.26"/><rect class="cls-1" x="-1173.28" y="-798.51" width="3146.19" height="2223.26"/><g class="cls-5"><rect class="cls-20" x="422.98" y="614.29" width="25.78" height="36.62"/></g></g><polygon id="SVGID-39" data-name="SVGID" class="cls-1" points="465.95 647.17 455.86 618.03 460.72 618.03 468.57 642.32 469.31 642.32 477.53 618.03 482.02 618.03 472.3 647.17 465.95 647.17"/><polygon class="cls-1" points="465.95 647.17 455.86 618.03 460.72 618.03 468.57 642.32 469.31 642.32 477.53 618.03 482.02 618.03 472.3 647.17 465.95 647.17"/><g class="cls-28"><rect id="SVGID-40" data-name="SVGID" class="cls-1" x="-1173.28" y="-798.51" width="3146.19" height="2223.26"/><rect class="cls-1" x="-1173.28" y="-798.51" width="3146.19" height="2223.26"/><g class="cls-5"><rect class="cls-20" x="452.13" y="614.29" width="33.63" height="36.62"/></g></g><polygon id="SVGID-41" data-name="SVGID" class="cls-1" points="516.02 647.17 516.02 622.14 507.05 622.14 507.05 618.03 529.1 618.03 529.1 622.14 520.13 622.14 520.13 647.17 516.02 647.17"/><polygon class="cls-1" points="516.02 647.17 516.02 622.14 507.05 622.14 507.05 618.03 529.1 618.03 529.1 622.14 520.13 622.14 520.13 647.17 516.02 647.17"/><g class="cls-29"><rect id="SVGID-42" data-name="SVGID" class="cls-1" x="-1173.28" y="-798.51" width="3146.19" height="2223.26"/><rect class="cls-1" x="-1173.28" y="-798.51" width="3146.19" height="2223.26"/><g class="cls-5"><rect class="cls-20" x="503.32" y="614.29" width="29.15" height="36.62"/></g></g><polygon id="SVGID-43" data-name="SVGID" class="cls-1" points="541.43 647.17 541.43 618.03 559.74 618.03 559.74 622.14 545.54 622.14 545.54 630.73 558.99 630.73 558.99 634.84 545.54 634.84 545.54 643.06 559.74 643.06 559.74 647.17 541.43 647.17"/><polygon class="cls-1" points="541.43 647.17 541.43 618.03 559.74 618.03 559.74 622.14 545.54 622.14 545.54 630.73 558.99 630.73 558.99 634.84 545.54 634.84 545.54 643.06 559.74 643.06 559.74 647.17 541.43 647.17"/><g class="cls-30"><rect id="SVGID-44" data-name="SVGID" class="cls-1" x="-1173.28" y="-798.51" width="3146.19" height="2223.26"/><rect class="cls-1" x="-1173.28" y="-798.51" width="3146.19" height="2223.26"/><g class="cls-5"><rect class="cls-20" x="537.69" y="614.29" width="25.78" height="36.62"/></g></g><path id="SVGID-45" data-name="SVGID" class="cls-1" d="M578.79,636.34h10.09l-4.48-13.45h-.75Zm-8.22,10.83L580.66,618H587l10.08,29.14h-4.48l-2.24-6.72H577.67l-2.24,6.72Z"/><path class="cls-1" d="M578.79,636.34h10.09l-4.48-13.45h-.75Zm-8.22,10.83L580.66,618H587l10.08,29.14h-4.48l-2.24-6.72H577.67l-2.24,6.72Z"/><g class="cls-31"><rect id="SVGID-46" data-name="SVGID" class="cls-1" x="-1173.28" y="-798.51" width="3146.19" height="2223.26"/><rect class="cls-1" x="-1173.28" y="-798.51" width="3146.19" height="2223.26"/><g class="cls-5"><rect class="cls-20" x="566.84" y="614.29" width="34.38" height="36.62"/></g></g><polygon id="SVGID-47" data-name="SVGID" class="cls-1" points="609.06 647.17 609.06 618.03 616.16 618.03 623.63 640.82 624.38 640.82 631.85 618.03 638.95 618.03 638.95 647.17 634.84 647.17 634.84 625.13 634.1 625.13 626.62 647.17 621.02 647.17 613.92 625.13 613.17 625.13 613.17 647.17 609.06 647.17"/><polygon class="cls-1" points="609.06 647.17 609.06 618.03 616.16 618.03 623.63 640.82 624.38 640.82 631.85 618.03 638.95 618.03 638.95 647.17 634.84 647.17 634.84 625.13 634.1 625.13 626.62 647.17 621.02 647.17 613.92 625.13 613.17 625.13 613.17 647.17 609.06 647.17"/><g class="cls-32"><rect id="SVGID-48" data-name="SVGID" class="cls-1" x="-1173.28" y="-798.51" width="3146.19" height="2223.26"/><rect class="cls-1" x="-1173.28" y="-798.51" width="3146.19" height="2223.26"/><g class="cls-5"><rect class="cls-20" x="605.32" y="614.29" width="37.37" height="36.62"/></g></g><path class="cls-1" d="M264.43-244.72h18.68a8.46,8.46,0,0,0,8.6-8.6v-19.05H273a8.45,8.45,0,0,0-8.59,8.59Z"/><g class="cls-33"><rect id="SVGID-49" data-name="SVGID" class="cls-1" x="-1172.28" y="-1487.51" width="3146.19" height="2223.26"/><rect class="cls-1" x="-1172.28" y="-1487.51" width="3146.19" height="2223.26"/></g><path class="cls-1" d="M275.64-140.47h16.07v-82.95a11,11,0,0,0-11.21-11.21H264.43v82.95A11,11,0,0,0,275.64-140.47Z"/><g class="cls-34"><rect id="SVGID-50" data-name="SVGID" class="cls-1" x="-1172.28" y="-1487.51" width="3146.19" height="2223.26"/><rect class="cls-1" x="-1172.28" y="-1487.51" width="3146.19" height="2223.26"/></g><path class="cls-1" d="M350.37-264.15H323.09v29.52H308.52v25.78h14.57v42.6c0,17.18,9,25.78,26.53,25.78h22.05v-25.78H357.1c-4.11,0-6.36-2.25-6.36-6.36v-35.87h20.93v-25.78H350.74v-29.89Z"/><g class="cls-35"><rect id="SVGID-51" data-name="SVGID" class="cls-1" x="-1172.28" y="-1487.51" width="3146.19" height="2223.26"/><rect class="cls-1" x="-1172.28" y="-1487.51" width="3146.19" height="2223.26"/></g><path class="cls-1" d="M431.45-210.72A19,19,0,0,1,446-204.37a35.52,35.52,0,0,1,3.73,6.36h28.4a48.45,48.45,0,0,0-7.85-19.43c-9.34-13.08-22.42-19.43-38.86-19.43-14.2,0-25.78,4.48-34.75,13.82s-13.45,20.93-13.45,35.12,4.49,26.16,13.45,35.13c9,9.34,20.55,13.82,34.75,13.82,16.82,0,29.9-6.35,38.86-19.43a46.46,46.46,0,0,0,7.85-19.43h-28.4a20.5,20.5,0,0,1-3.73,6.36c-3.37,4.48-8.22,6.35-14.58,6.35a19.71,19.71,0,0,1-14.94-6.35c-4.11-4.12-6-9.72-6-16.82,0-6.73,1.87-12.33,6-16.81a22.22,22.22,0,0,1,14.94-5.61"/><g class="cls-36"><rect id="SVGID-52" data-name="SVGID" class="cls-1" x="-1172.28" y="-1487.51" width="3146.19" height="2223.26"/><rect class="cls-1" x="-1172.28" y="-1487.51" width="3146.19" height="2223.26"/></g><path class="cls-1" d="M527.48-170.74a20.56,20.56,0,0,0,15.32,6.35,19.74,19.74,0,0,0,15-6.35c4.11-4.11,6-9.71,6-16.81s-1.87-12.33-6-16.82-9-6.35-15-6.35a19.71,19.71,0,0,0-14.94,6.35c-4.11,4.11-6,9.72-6,16.82S523.75-174.85,527.48-170.74Zm49.33,30.27-11.59-9.34a56,56,0,0,1-7.1,5.6,33.88,33.88,0,0,1-19.43,5.61c-12.7,0-23.16-4.49-31.76-13.83s-13.08-20.92-13.08-35.12,4.49-25.78,13.08-35.13S526-236.5,538.69-236.5a34,34,0,0,1,19.43,5.6,43.66,43.66,0,0,1,6,5.61h.75l1.87-9.34h23.91v94.16Z"/><g class="cls-37"><rect id="SVGID-53" data-name="SVGID" class="cls-1" x="-1172.28" y="-1487.51" width="3146.19" height="2223.26"/><rect class="cls-1" x="-1172.28" y="-1487.51" width="3146.19" height="2223.26"/></g><polygon class="cls-1" points="667.98 -232.76 636.96 -191.29 636.96 -223.42 636.96 -269.38 609.69 -269.38 609.69 -186.81 609.69 -140.47 636.96 -140.47 636.96 -149.81 636.96 -181.95 667.98 -140.47 699.74 -140.47 665.36 -186.81 699.74 -232.76 667.98 -232.76"/><g class="cls-38"><rect id="SVGID-54" data-name="SVGID" class="cls-1" x="-1172.28" y="-1487.51" width="3146.19" height="2223.26"/><rect class="cls-1" x="-1172.28" y="-1487.51" width="3146.19" height="2223.26"/></g><path class="cls-1" d="M121.69-234.63a14.15,14.15,0,0,0-7.85,2.61l-7.47,5.61L95.16-235H79.09v94.17h27.28V-192a16.34,16.34,0,0,1,16.44-16.44h16.44v-25.78H121.69Z"/><g class="cls-39"><rect id="SVGID-55" data-name="SVGID" class="cls-1" x="-1172.28" y="-1487.51" width="3146.19" height="2223.26"/><rect class="cls-1" x="-1172.28" y="-1487.51" width="3146.19" height="2223.26"/></g><path class="cls-1" d="M15.57-140.47v-68.38H1v-25.78H15.57v-12.71c0-16.44,9-25.78,26.53-25.78H63v22.79H49.2c-4.11,0-6.35,2.25-6.35,6.36v9.34H63v25.78H42.85v68.38Z"/><g class="cls-40"><rect id="SVGID-56" data-name="SVGID" class="cls-1" x="-1172.28" y="-1487.51" width="3146.19" height="2223.26"/><rect class="cls-1" x="-1172.28" y="-1487.51" width="3146.19" height="2223.26"/></g><path class="cls-1" d="M215.11-182.69c0,5.23-1.5,9.34-4.86,12.7a16.63,16.63,0,0,1-12.33,4.86c-5.23,0-9.34-1.5-12.33-4.86-3.37-3.36-4.86-7.47-4.86-12.7v-51.57H153.45v57.17c0,11.58,3.37,20.93,10.46,28s16.07,10.84,26.91,10.84a20,20,0,0,0,4.86-.37,27.87,27.87,0,0,0,14.19-5.61l6-4.48,11.21,8.59h16.07v-94.16H215.85v51.57Z"/><g class="cls-41"><rect id="SVGID-57" data-name="SVGID" class="cls-1" x="-1172.28" y="-1487.51" width="3146.19" height="2223.26"/><rect class="cls-1" x="-1172.28" y="-1487.51" width="3146.19" height="2223.26"/></g><path d="M2142.43,444.28h18.68a8.46,8.46,0,0,0,8.6-8.6V416.63H2151a8.45,8.45,0,0,0-8.59,8.59Z"/><g class="cls-42"><rect id="SVGID-58" data-name="SVGID" x="705.72" y="-798.51" width="3146.19" height="2223.26"/><rect x="705.72" y="-798.51" width="3146.19" height="2223.26"/></g><path d="M2153.64,548.53h16.07V465.58a11,11,0,0,0-11.21-11.21h-16.07v83A11,11,0,0,0,2153.64,548.53Z"/><g class="cls-43"><rect id="SVGID-59" data-name="SVGID" x="705.72" y="-798.51" width="3146.19" height="2223.26"/><rect x="705.72" y="-798.51" width="3146.19" height="2223.26"/></g><path d="M2228.37,424.85h-27.28v29.52h-14.57v25.78h14.57v42.6c0,17.18,9,25.78,26.53,25.78h22.05V522.75H2235.1c-4.11,0-6.36-2.25-6.36-6.36V480.52h20.93V454.74h-20.93V424.85Z"/><g class="cls-44"><rect id="SVGID-60" data-name="SVGID" x="705.72" y="-798.51" width="3146.19" height="2223.26"/><rect x="705.72" y="-798.51" width="3146.19" height="2223.26"/></g><path d="M2309.45,478.28a19,19,0,0,1,14.58,6.35,35.52,35.52,0,0,1,3.73,6.36h28.4a48.45,48.45,0,0,0-7.85-19.43c-9.34-13.08-22.42-19.43-38.86-19.43-14.2,0-25.78,4.48-34.75,13.82s-13.45,20.93-13.45,35.12,4.49,26.16,13.45,35.13c9,9.34,20.55,13.82,34.75,13.82,16.82,0,29.9-6.35,38.86-19.43a46.46,46.46,0,0,0,7.85-19.43h-28.4a20.5,20.5,0,0,1-3.73,6.36c-3.37,4.48-8.22,6.35-14.58,6.35a19.71,19.71,0,0,1-14.94-6.35c-4.11-4.12-6-9.72-6-16.82,0-6.73,1.87-12.33,6-16.81a22.22,22.22,0,0,1,14.94-5.61"/><g class="cls-45"><rect id="SVGID-61" data-name="SVGID" x="705.72" y="-798.51" width="3146.19" height="2223.26"/><rect x="705.72" y="-798.51" width="3146.19" height="2223.26"/></g><path d="M2405.48,518.26a20.56,20.56,0,0,0,15.32,6.35,19.74,19.74,0,0,0,14.95-6.35c4.11-4.11,6-9.71,6-16.81s-1.87-12.33-6-16.82-9-6.35-14.95-6.35a19.71,19.71,0,0,0-14.94,6.35c-4.11,4.11-6,9.72-6,16.82S2401.75,514.15,2405.48,518.26Zm49.33,30.27-11.59-9.34a56,56,0,0,1-7.1,5.6,33.88,33.88,0,0,1-19.43,5.61c-12.7,0-23.16-4.49-31.76-13.83s-13.08-20.92-13.08-35.12,4.49-25.78,13.08-35.13,19.06-13.82,31.76-13.82a34,34,0,0,1,19.43,5.6,43.66,43.66,0,0,1,6,5.61h.75l1.87-9.34h23.91v94.16Z"/><g class="cls-46"><rect id="SVGID-62" data-name="SVGID" x="705.72" y="-798.51" width="3146.19" height="2223.26"/><rect x="705.72" y="-798.51" width="3146.19" height="2223.26"/></g><polygon points="2545.98 456.24 2514.96 497.71 2514.96 465.58 2514.96 419.62 2487.69 419.62 2487.69 502.19 2487.69 548.53 2514.96 548.53 2514.96 539.19 2514.96 507.05 2545.98 548.53 2577.74 548.53 2543.36 502.19 2577.74 456.24 2545.98 456.24"/><g class="cls-47"><rect id="SVGID-63" data-name="SVGID" x="705.72" y="-798.51" width="3146.19" height="2223.26"/><rect x="705.72" y="-798.51" width="3146.19" height="2223.26"/></g><path d="M1999.69,454.37a14.15,14.15,0,0,0-7.85,2.61l-7.47,5.61-11.21-8.6h-16.07v94.17h27.28V497a16.34,16.34,0,0,1,16.44-16.44h16.44V454.74h-17.56Z"/><g class="cls-48"><rect id="SVGID-64" data-name="SVGID" x="705.72" y="-798.51" width="3146.19" height="2223.26"/><rect x="705.72" y="-798.51" width="3146.19" height="2223.26"/></g><path d="M1893.57,548.53V480.15H1879V454.37h14.57V441.66c0-16.44,9-25.78,26.53-25.78H1941v22.79H1927.2c-4.11,0-6.35,2.25-6.35,6.36v9.34H1941v25.78h-20.18v68.38Z"/><g class="cls-49"><rect id="SVGID-65" data-name="SVGID" x="705.72" y="-798.51" width="3146.19" height="2223.26"/><rect x="705.72" y="-798.51" width="3146.19" height="2223.26"/></g><path d="M2093.11,506.31c0,5.23-1.5,9.34-4.86,12.7a16.63,16.63,0,0,1-12.33,4.86c-5.23,0-9.34-1.5-12.33-4.86-3.37-3.36-4.86-7.47-4.86-12.7V454.74h-27.28v57.17c0,11.58,3.37,20.93,10.46,28s16.07,10.84,26.91,10.84a20,20,0,0,0,4.86-.37,27.87,27.87,0,0,0,14.19-5.61l6-4.48,11.21,8.59h16.07V454.74h-27.28v51.57Z"/><g class="cls-50"><rect id="SVGID-66" data-name="SVGID" x="705.72" y="-798.51" width="3146.19" height="2223.26"/><rect x="705.72" y="-798.51" width="3146.19" height="2223.26"/></g><polygon points="2038.55 647.17 2038.55 636.71 2028.46 618.03 2032.95 618.03 2040.42 631.48 2041.17 631.48 2048.27 618.03 2053.12 618.03 2043.04 636.71 2043.04 647.17 2038.55 647.17"/><g class="cls-51"><rect id="SVGID-67" data-name="SVGID" x="705.72" y="-798.51" width="3146.19" height="2223.26"/><rect x="705.72" y="-798.51" width="3146.19" height="2223.26"/></g><path d="M2082.64,624.75a9.08,9.08,0,0,0-13.45,0c-1.87,1.87-2.61,4.49-2.61,7.85s.74,6,2.61,7.85a9.06,9.06,0,0,0,13.45,0c1.87-1.87,2.62-4.49,2.62-7.85A13.17,13.17,0,0,0,2082.64,624.75Zm2.62,18.69a12.77,12.77,0,0,1-9.34,4.11,12.15,12.15,0,0,1-9.34-4.11c-2.62-2.62-3.74-6.35-3.74-10.84s1.12-7.85,3.74-10.83a12.7,12.7,0,0,1,9.34-4.11,12.13,12.13,0,0,1,9.34,4.11c2.61,2.61,3.74,6.35,3.74,10.83S2087.87,640.82,2085.26,643.44Z"/><g class="cls-52"><rect id="SVGID-68" data-name="SVGID" x="705.72" y="-798.51" width="3146.19" height="2223.26"/><rect x="705.72" y="-798.51" width="3146.19" height="2223.26"/></g><path d="M2102.45,635.59V618h4.11v17.56a9.15,9.15,0,0,0,1.87,5.61,6.57,6.57,0,0,0,4.85,2.24,6,6,0,0,0,4.86-2.24c1.5-1.5,1.87-3.37,1.87-5.61V618h4.11v17.56a12.58,12.58,0,0,1-3,8.59,11.71,11.71,0,0,1-16.44,0A16.88,16.88,0,0,1,2102.45,635.59Z"/><g class="cls-53"><rect id="SVGID-69" data-name="SVGID" x="705.72" y="-798.51" width="3146.19" height="2223.26"/><rect x="705.72" y="-798.51" width="3146.19" height="2223.26"/></g><path d="M2143.55,632.6h8.22a3.4,3.4,0,0,0,3-1.49,6.8,6.8,0,0,0,0-7.48,3.4,3.4,0,0,0-3-1.49h-8.22Zm-4.48,14.57V618h12.7a7.47,7.47,0,0,1,6,2.61,11.23,11.23,0,0,1,0,13.46,7,7,0,0,1-6,2.61h-1.12l10.09,10.46h-5.23l-10.09-10.46h-1.87v10.46Z"/><g class="cls-54"><rect id="SVGID-70" data-name="SVGID" x="705.72" y="-798.51" width="3146.19" height="2223.26"/><rect x="705.72" y="-798.51" width="3146.19" height="2223.26"/></g><path d="M2199.22,636h5.61l1.49-6.72h-5.6Zm-6,11.21,1.49-7.47h-5.6l.74-3.74h5.61l1.49-6.72h-5.6l.74-3.74h5.61l1.49-7.47H2203l-1.49,7.47h5.6l1.5-7.47h3.73l-1.49,7.47h5.6l-.74,3.74h-5.61l-1.49,6.72h5.6l-.75,3.74h-5.6l-1.5,7.47h-3.73l1.49-7.47h-5.6l-1.5,7.47Z"/><g class="cls-55"><rect id="SVGID-71" data-name="SVGID" x="705.72" y="-798.51" width="3146.19" height="2223.26"/><rect x="705.72" y="-798.51" width="3146.19" height="2223.26"/></g><path d="M2232.11,647.17V625.5h-5.61v-4.11H2231a1,1,0,0,0,1.12-1.12V618.4h4.11v29.15h-4.11Z"/><g class="cls-56"><rect id="SVGID-72" data-name="SVGID" x="705.72" y="-798.51" width="3146.19" height="2223.26"/><rect x="705.72" y="-798.51" width="3146.19" height="2223.26"/></g><path d="M2269.1,647.17V618h9.71a13.56,13.56,0,0,1,9.72,4.11c2.61,2.61,3.73,6.35,3.73,10.46s-1.12,7.85-3.73,10.46a13,13,0,0,1-9.72,4.11Zm4.11-4.11h5.6a9.36,9.36,0,0,0,6.73-3c1.87-1.86,2.61-4.48,2.61-7.47s-.74-5.6-2.61-7.47a9.36,9.36,0,0,0-6.73-3h-5.6Z"/><g class="cls-57"><rect id="SVGID-73" data-name="SVGID" x="705.72" y="-798.51" width="3146.19" height="2223.26"/><rect x="705.72" y="-798.51" width="3146.19" height="2223.26"/></g><polygon points="2305.72 647.17 2305.72 618.03 2324.03 618.03 2324.03 622.14 2309.83 622.14 2309.83 630.73 2323.28 630.73 2323.28 634.84 2309.83 634.84 2309.83 643.06 2324.03 643.06 2324.03 647.17 2305.72 647.17"/><g class="cls-58"><rect id="SVGID-74" data-name="SVGID" x="705.72" y="-798.51" width="3146.19" height="2223.26"/><rect x="705.72" y="-798.51" width="3146.19" height="2223.26"/></g><polygon points="2344.95 647.17 2334.86 618.03 2339.72 618.03 2347.57 642.32 2348.31 642.32 2356.53 618.03 2361.02 618.03 2351.3 647.17 2344.95 647.17"/><g class="cls-59"><rect id="SVGID-75" data-name="SVGID" x="705.72" y="-798.51" width="3146.19" height="2223.26"/><rect x="705.72" y="-798.51" width="3146.19" height="2223.26"/></g><polygon points="2395.02 647.17 2395.02 622.14 2386.05 622.14 2386.05 618.03 2408.1 618.03 2408.1 622.14 2399.13 622.14 2399.13 647.17 2395.02 647.17"/><g class="cls-60"><rect id="SVGID-76" data-name="SVGID" x="705.72" y="-798.51" width="3146.19" height="2223.26"/><rect x="705.72" y="-798.51" width="3146.19" height="2223.26"/></g><polygon points="2420.43 647.17 2420.43 618.03 2438.74 618.03 2438.74 622.14 2424.54 622.14 2424.54 630.73 2437.99 630.73 2437.99 634.84 2424.54 634.84 2424.54 643.06 2438.74 643.06 2438.74 647.17 2420.43 647.17"/><g class="cls-61"><rect id="SVGID-77" data-name="SVGID" x="705.72" y="-798.51" width="3146.19" height="2223.26"/><rect x="705.72" y="-798.51" width="3146.19" height="2223.26"/></g><path d="M2457.79,636.34h10.09l-4.48-13.45h-.75Zm-8.22,10.83L2459.66,618H2466l10.08,29.14h-4.48l-2.24-6.72h-12.71l-2.24,6.72Z"/><g class="cls-62"><rect id="SVGID-78" data-name="SVGID" x="705.72" y="-798.51" width="3146.19" height="2223.26"/><rect x="705.72" y="-798.51" width="3146.19" height="2223.26"/></g><polygon points="2488.06 647.17 2488.06 618.03 2495.16 618.03 2502.63 640.82 2503.38 640.82 2510.85 618.03 2517.95 618.03 2517.95 647.17 2513.84 647.17 2513.84 625.13 2513.1 625.13 2505.62 647.17 2500.02 647.17 2492.92 625.13 2492.17 625.13 2492.17 647.17 2488.06 647.17"/><g class="cls-63"><rect id="SVGID-79" data-name="SVGID" x="705.72" y="-798.51" width="3146.19" height="2223.26"/><rect x="705.72" y="-798.51" width="3146.19" height="2223.26"/></g><path d="M2143.43-244.72h18.68a8.46,8.46,0,0,0,8.6-8.6v-19.05H2152a8.45,8.45,0,0,0-8.59,8.59Z"/><g class="cls-64"><rect id="SVGID-80" data-name="SVGID" x="706.72" y="-1487.51" width="3146.19" height="2223.26"/><rect x="706.72" y="-1487.51" width="3146.19" height="2223.26"/></g><path d="M2154.64-140.47h16.07v-82.95a11,11,0,0,0-11.21-11.21h-16.07v82.95A11,11,0,0,0,2154.64-140.47Z"/><g class="cls-65"><rect id="SVGID-81" data-name="SVGID" x="706.72" y="-1487.51" width="3146.19" height="2223.26"/><rect x="706.72" y="-1487.51" width="3146.19" height="2223.26"/></g><path d="M2229.37-264.15h-27.28v29.52h-14.57v25.78h14.57v42.6c0,17.18,9,25.78,26.53,25.78h22.05v-25.78H2236.1c-4.11,0-6.36-2.25-6.36-6.36v-35.87h20.93v-25.78h-20.93v-29.89Z"/><g class="cls-66"><rect id="SVGID-82" data-name="SVGID" x="706.72" y="-1487.51" width="3146.19" height="2223.26"/><rect x="706.72" y="-1487.51" width="3146.19" height="2223.26"/></g><path d="M2310.45-210.72a19,19,0,0,1,14.58,6.35,35.52,35.52,0,0,1,3.73,6.36h28.4a48.45,48.45,0,0,0-7.85-19.43c-9.34-13.08-22.42-19.43-38.86-19.43-14.2,0-25.78,4.48-34.75,13.82s-13.45,20.93-13.45,35.12,4.49,26.16,13.45,35.13c9,9.34,20.55,13.82,34.75,13.82,16.82,0,29.9-6.35,38.86-19.43a46.46,46.46,0,0,0,7.85-19.43h-28.4a20.5,20.5,0,0,1-3.73,6.36c-3.37,4.48-8.22,6.35-14.58,6.35a19.71,19.71,0,0,1-14.94-6.35c-4.11-4.12-6-9.72-6-16.82,0-6.73,1.87-12.33,6-16.81a22.22,22.22,0,0,1,14.94-5.61"/><g class="cls-67"><rect id="SVGID-83" data-name="SVGID" x="706.72" y="-1487.51" width="3146.19" height="2223.26"/><rect x="706.72" y="-1487.51" width="3146.19" height="2223.26"/></g><path d="M2406.48-170.74a20.56,20.56,0,0,0,15.32,6.35,19.74,19.74,0,0,0,14.95-6.35c4.11-4.11,6-9.71,6-16.81s-1.87-12.33-6-16.82-9-6.35-14.95-6.35a19.71,19.71,0,0,0-14.94,6.35c-4.11,4.11-6,9.72-6,16.82S2402.75-174.85,2406.48-170.74Zm49.33,30.27-11.59-9.34a56,56,0,0,1-7.1,5.6,33.88,33.88,0,0,1-19.43,5.61c-12.7,0-23.16-4.49-31.76-13.83s-13.08-20.92-13.08-35.12,4.49-25.78,13.08-35.13,19.06-13.82,31.76-13.82a34,34,0,0,1,19.43,5.6,43.66,43.66,0,0,1,6,5.61h.75l1.87-9.34h23.91v94.16Z"/><g class="cls-68"><rect id="SVGID-84" data-name="SVGID" x="706.72" y="-1487.51" width="3146.19" height="2223.26"/><rect x="706.72" y="-1487.51" width="3146.19" height="2223.26"/></g><polygon points="2546.98 -232.76 2515.96 -191.29 2515.96 -223.42 2515.96 -269.38 2488.69 -269.38 2488.69 -186.81 2488.69 -140.47 2515.96 -140.47 2515.96 -149.81 2515.96 -181.95 2546.98 -140.47 2578.74 -140.47 2544.36 -186.81 2578.74 -232.76 2546.98 -232.76"/><g class="cls-69"><rect id="SVGID-85" data-name="SVGID" x="706.72" y="-1487.51" width="3146.19" height="2223.26"/><rect x="706.72" y="-1487.51" width="3146.19" height="2223.26"/></g><path d="M2000.69-234.63a14.15,14.15,0,0,0-7.85,2.61l-7.47,5.61-11.21-8.6h-16.07v94.17h27.28V-192a16.34,16.34,0,0,1,16.44-16.44h16.44v-25.78h-17.56Z"/><g class="cls-70"><rect id="SVGID-86" data-name="SVGID" x="706.72" y="-1487.51" width="3146.19" height="2223.26"/><rect x="706.72" y="-1487.51" width="3146.19" height="2223.26"/></g><path d="M1894.57-140.47v-68.38H1880v-25.78h14.57v-12.71c0-16.44,9-25.78,26.53-25.78H1942v22.79H1928.2c-4.11,0-6.35,2.25-6.35,6.36v9.34H1942v25.78h-20.18v68.38Z"/><g class="cls-71"><rect id="SVGID-87" data-name="SVGID" x="706.72" y="-1487.51" width="3146.19" height="2223.26"/><rect x="706.72" y="-1487.51" width="3146.19" height="2223.26"/></g><path d="M2094.11-182.69c0,5.23-1.5,9.34-4.86,12.7a16.63,16.63,0,0,1-12.33,4.86c-5.23,0-9.34-1.5-12.33-4.86-3.37-3.36-4.86-7.47-4.86-12.7v-51.57h-27.28v57.17c0,11.58,3.37,20.93,10.46,28s16.07,10.84,26.91,10.84a20,20,0,0,0,4.86-.37,27.87,27.87,0,0,0,14.19-5.61l6-4.48,11.21,8.59h16.07v-94.16h-27.28v51.57Z"/><g class="cls-72"><rect id="SVGID-88" data-name="SVGID" x="706.72" y="-1487.51" width="3146.19" height="2223.26"/><rect x="706.72" y="-1487.51" width="3146.19" height="2223.26"/></g><path d="M1179.43,444.28h18.68a8.46,8.46,0,0,0,8.6-8.6V416.63H1188a8.45,8.45,0,0,0-8.59,8.59Z"/><g class="cls-73"><rect id="SVGID-89" data-name="SVGID" x="-257.28" y="-798.51" width="3146.19" height="2223.26"/><rect x="-257.28" y="-798.51" width="3146.19" height="2223.26"/></g><path d="M1190.64,548.53h16.07V465.58a11,11,0,0,0-11.21-11.21h-16.07v83A11,11,0,0,0,1190.64,548.53Z"/><g class="cls-74"><rect id="SVGID-90" data-name="SVGID" x="-257.28" y="-798.51" width="3146.19" height="2223.26"/><rect x="-257.28" y="-798.51" width="3146.19" height="2223.26"/></g><path d="M1265.37,424.85h-27.28v29.52h-14.57v25.78h14.57v42.6c0,17.18,9,25.78,26.53,25.78h22.05V522.75H1272.1c-4.11,0-6.36-2.25-6.36-6.36V480.52h20.93V454.74h-20.93V424.85Z"/><g class="cls-75"><rect id="SVGID-91" data-name="SVGID" x="-257.28" y="-798.51" width="3146.19" height="2223.26"/><rect x="-257.28" y="-798.51" width="3146.19" height="2223.26"/></g><path d="M1346.45,478.28a19,19,0,0,1,14.58,6.35,35.52,35.52,0,0,1,3.73,6.36h28.4a48.45,48.45,0,0,0-7.85-19.43c-9.34-13.08-22.42-19.43-38.86-19.43-14.2,0-25.78,4.48-34.75,13.82s-13.45,20.93-13.45,35.12,4.49,26.16,13.45,35.13c9,9.34,20.55,13.82,34.75,13.82,16.82,0,29.9-6.35,38.86-19.43a46.46,46.46,0,0,0,7.85-19.43h-28.4a20.5,20.5,0,0,1-3.73,6.36c-3.37,4.48-8.22,6.35-14.58,6.35a19.71,19.71,0,0,1-14.94-6.35c-4.11-4.12-6-9.72-6-16.82,0-6.73,1.87-12.33,6-16.81a22.22,22.22,0,0,1,14.94-5.61"/><g class="cls-76"><rect id="SVGID-92" data-name="SVGID" x="-257.28" y="-798.51" width="3146.19" height="2223.26"/><rect x="-257.28" y="-798.51" width="3146.19" height="2223.26"/></g><path d="M1442.48,518.26a20.56,20.56,0,0,0,15.32,6.35,19.74,19.74,0,0,0,15-6.35c4.11-4.11,6-9.71,6-16.81s-1.87-12.33-6-16.82-9-6.35-15-6.35a19.71,19.71,0,0,0-14.94,6.35c-4.11,4.11-6,9.72-6,16.82S1438.75,514.15,1442.48,518.26Zm49.33,30.27-11.59-9.34a56,56,0,0,1-7.1,5.6,33.88,33.88,0,0,1-19.43,5.61c-12.7,0-23.16-4.49-31.76-13.83s-13.08-20.92-13.08-35.12,4.49-25.78,13.08-35.13,19.06-13.82,31.76-13.82a34,34,0,0,1,19.43,5.6,43.66,43.66,0,0,1,6,5.61h.75l1.87-9.34h23.91v94.16Z"/><g class="cls-77"><rect id="SVGID-93" data-name="SVGID" x="-257.28" y="-798.51" width="3146.19" height="2223.26"/><rect x="-257.28" y="-798.51" width="3146.19" height="2223.26"/></g><polygon points="1582.98 456.24 1551.96 497.71 1551.96 465.58 1551.96 419.62 1524.69 419.62 1524.69 502.19 1524.69 548.53 1551.96 548.53 1551.96 539.19 1551.96 507.05 1582.98 548.53 1614.74 548.53 1580.36 502.19 1614.74 456.24 1582.98 456.24"/><g class="cls-78"><rect id="SVGID-94" data-name="SVGID" x="-257.28" y="-798.51" width="3146.19" height="2223.26"/><rect x="-257.28" y="-798.51" width="3146.19" height="2223.26"/></g><path d="M1036.69,454.37a14.15,14.15,0,0,0-7.85,2.61l-7.47,5.61-11.21-8.6H994.09v94.17h27.28V497a16.34,16.34,0,0,1,16.44-16.44h16.44V454.74h-17.56Z"/><g class="cls-79"><rect id="SVGID-95" data-name="SVGID" x="-257.28" y="-798.51" width="3146.19" height="2223.26"/><rect x="-257.28" y="-798.51" width="3146.19" height="2223.26"/></g><path d="M930.57,548.53V480.15H916V454.37h14.57V441.66c0-16.44,9-25.78,26.53-25.78H978v22.79H964.2c-4.11,0-6.35,2.25-6.35,6.36v9.34H978v25.78H957.85v68.38Z"/><g class="cls-80"><rect id="SVGID-96" data-name="SVGID" x="-257.28" y="-798.51" width="3146.19" height="2223.26"/><rect x="-257.28" y="-798.51" width="3146.19" height="2223.26"/></g><path d="M1130.11,506.31c0,5.23-1.5,9.34-4.86,12.7a16.63,16.63,0,0,1-12.33,4.86c-5.23,0-9.34-1.5-12.33-4.86-3.37-3.36-4.86-7.47-4.86-12.7V454.74h-27.28v57.17c0,11.58,3.37,20.93,10.46,28s16.07,10.84,26.91,10.84a20,20,0,0,0,4.86-.37,27.87,27.87,0,0,0,14.19-5.61l6-4.48,11.21,8.59h16.07V454.74h-27.28v51.57Z"/><g class="cls-81"><rect id="SVGID-97" data-name="SVGID" x="-257.28" y="-798.51" width="3146.19" height="2223.26"/><rect x="-257.28" y="-798.51" width="3146.19" height="2223.26"/></g><polygon points="1075.55 647.17 1075.55 636.71 1065.46 618.03 1069.95 618.03 1077.42 631.48 1078.17 631.48 1085.27 618.03 1090.12 618.03 1080.04 636.71 1080.04 647.17 1075.55 647.17"/><g class="cls-82"><rect id="SVGID-98" data-name="SVGID" x="-257.28" y="-798.51" width="3146.19" height="2223.26"/><rect x="-257.28" y="-798.51" width="3146.19" height="2223.26"/></g><path d="M1119.64,624.75a9.08,9.08,0,0,0-13.45,0c-1.87,1.87-2.61,4.49-2.61,7.85s.74,6,2.61,7.85a9.06,9.06,0,0,0,13.45,0c1.87-1.87,2.62-4.49,2.62-7.85A13.17,13.17,0,0,0,1119.64,624.75Zm2.62,18.69a12.77,12.77,0,0,1-9.34,4.11,12.15,12.15,0,0,1-9.34-4.11c-2.62-2.62-3.74-6.35-3.74-10.84s1.12-7.85,3.74-10.83a12.7,12.7,0,0,1,9.34-4.11,12.13,12.13,0,0,1,9.34,4.11c2.61,2.61,3.74,6.35,3.74,10.83S1124.87,640.82,1122.26,643.44Z"/><g class="cls-83"><rect id="SVGID-99" data-name="SVGID" x="-257.28" y="-798.51" width="3146.19" height="2223.26"/><rect x="-257.28" y="-798.51" width="3146.19" height="2223.26"/></g><path d="M1139.45,635.59V618h4.11v17.56a9.15,9.15,0,0,0,1.87,5.61,6.57,6.57,0,0,0,4.85,2.24,6,6,0,0,0,4.86-2.24c1.5-1.5,1.87-3.37,1.87-5.61V618h4.11v17.56a12.58,12.58,0,0,1-3,8.59,11.71,11.71,0,0,1-16.44,0A16.88,16.88,0,0,1,1139.45,635.59Z"/><g class="cls-84"><rect id="SVGID-100" data-name="SVGID" x="-257.28" y="-798.51" width="3146.19" height="2223.26"/><rect x="-257.28" y="-798.51" width="3146.19" height="2223.26"/></g><path d="M1180.55,632.6h8.22a3.4,3.4,0,0,0,3-1.49,6.8,6.8,0,0,0,0-7.48,3.4,3.4,0,0,0-3-1.49h-8.22Zm-4.48,14.57V618h12.7a7.47,7.47,0,0,1,6,2.61,11.23,11.23,0,0,1,0,13.46,7,7,0,0,1-6,2.61h-1.12l10.09,10.46h-5.23l-10.09-10.46h-1.87v10.46Z"/><g class="cls-85"><rect id="SVGID-101" data-name="SVGID" x="-257.28" y="-798.51" width="3146.19" height="2223.26"/><rect x="-257.28" y="-798.51" width="3146.19" height="2223.26"/></g><path d="M1236.22,636h5.61l1.49-6.72h-5.6Zm-6,11.21,1.49-7.47h-5.6l.74-3.74h5.61l1.49-6.72h-5.6l.74-3.74h5.61l1.49-7.47H1240l-1.49,7.47h5.6l1.5-7.47h3.73l-1.49,7.47h5.6l-.74,3.74h-5.61l-1.49,6.72h5.6l-.75,3.74h-5.6l-1.5,7.47h-3.73l1.49-7.47h-5.6l-1.5,7.47Z"/><g class="cls-86"><rect id="SVGID-102" data-name="SVGID" x="-257.28" y="-798.51" width="3146.19" height="2223.26"/><rect x="-257.28" y="-798.51" width="3146.19" height="2223.26"/></g><path d="M1269.11,647.17V625.5h-5.61v-4.11H1268a1,1,0,0,0,1.12-1.12V618.4h4.11v29.15h-4.11Z"/><g class="cls-87"><rect id="SVGID-103" data-name="SVGID" x="-257.28" y="-798.51" width="3146.19" height="2223.26"/><rect x="-257.28" y="-798.51" width="3146.19" height="2223.26"/></g><path d="M1306.1,647.17V618h9.71a13.56,13.56,0,0,1,9.72,4.11c2.61,2.61,3.73,6.35,3.73,10.46s-1.12,7.85-3.73,10.46a13,13,0,0,1-9.72,4.11Zm4.11-4.11h5.6a9.36,9.36,0,0,0,6.73-3c1.87-1.86,2.61-4.48,2.61-7.47s-.74-5.6-2.61-7.47a9.36,9.36,0,0,0-6.73-3h-5.6Z"/><g class="cls-88"><rect id="SVGID-104" data-name="SVGID" x="-257.28" y="-798.51" width="3146.19" height="2223.26"/><rect x="-257.28" y="-798.51" width="3146.19" height="2223.26"/></g><polygon points="1342.72 647.17 1342.72 618.03 1361.03 618.03 1361.03 622.14 1346.83 622.14 1346.83 630.73 1360.28 630.73 1360.28 634.84 1346.83 634.84 1346.83 643.06 1361.03 643.06 1361.03 647.17 1342.72 647.17"/><g class="cls-89"><rect id="SVGID-105" data-name="SVGID" x="-257.28" y="-798.51" width="3146.19" height="2223.26"/><rect x="-257.28" y="-798.51" width="3146.19" height="2223.26"/></g><polygon points="1381.95 647.17 1371.86 618.03 1376.72 618.03 1384.57 642.32 1385.31 642.32 1393.53 618.03 1398.02 618.03 1388.3 647.17 1381.95 647.17"/><g class="cls-90"><rect id="SVGID-106" data-name="SVGID" x="-257.28" y="-798.51" width="3146.19" height="2223.26"/><rect x="-257.28" y="-798.51" width="3146.19" height="2223.26"/></g><polygon points="1432.02 647.17 1432.02 622.14 1423.05 622.14 1423.05 618.03 1445.1 618.03 1445.1 622.14 1436.13 622.14 1436.13 647.17 1432.02 647.17"/><g class="cls-91"><rect id="SVGID-107" data-name="SVGID" x="-257.28" y="-798.51" width="3146.19" height="2223.26"/><rect x="-257.28" y="-798.51" width="3146.19" height="2223.26"/></g><polygon points="1457.43 647.17 1457.43 618.03 1475.74 618.03 1475.74 622.14 1461.54 622.14 1461.54 630.73 1474.99 630.73 1474.99 634.84 1461.54 634.84 1461.54 643.06 1475.74 643.06 1475.74 647.17 1457.43 647.17"/><g class="cls-92"><rect id="SVGID-108" data-name="SVGID" x="-257.28" y="-798.51" width="3146.19" height="2223.26"/><rect x="-257.28" y="-798.51" width="3146.19" height="2223.26"/></g><path d="M1494.79,636.34h10.09l-4.48-13.45h-.75Zm-8.22,10.83L1496.66,618H1503l10.08,29.14h-4.48l-2.24-6.72h-12.71l-2.24,6.72Z"/><g class="cls-93"><rect id="SVGID-109" data-name="SVGID" x="-257.28" y="-798.51" width="3146.19" height="2223.26"/><rect x="-257.28" y="-798.51" width="3146.19" height="2223.26"/></g><polygon points="1525.06 647.17 1525.06 618.03 1532.16 618.03 1539.63 640.82 1540.38 640.82 1547.85 618.03 1554.95 618.03 1554.95 647.17 1550.84 647.17 1550.84 625.13 1550.1 625.13 1542.62 647.17 1537.02 647.17 1529.92 625.13 1529.17 625.13 1529.17 647.17 1525.06 647.17"/><g class="cls-94"><rect id="SVGID-110" data-name="SVGID" x="-257.28" y="-798.51" width="3146.19" height="2223.26"/><rect x="-257.28" y="-798.51" width="3146.19" height="2223.26"/></g><path d="M1180.43-244.72h18.68a8.46,8.46,0,0,0,8.6-8.6v-19.05H1189a8.45,8.45,0,0,0-8.59,8.59Z"/><g class="cls-95"><rect id="SVGID-111" data-name="SVGID" x="-256.28" y="-1487.51" width="3146.19" height="2223.26"/><rect x="-256.28" y="-1487.51" width="3146.19" height="2223.26"/></g><path d="M1191.64-140.47h16.07v-82.95a11,11,0,0,0-11.21-11.21h-16.07v82.95A11,11,0,0,0,1191.64-140.47Z"/><g class="cls-96"><rect id="SVGID-112" data-name="SVGID" x="-256.28" y="-1487.51" width="3146.19" height="2223.26"/><rect x="-256.28" y="-1487.51" width="3146.19" height="2223.26"/></g><path d="M1266.37-264.15h-27.28v29.52h-14.57v25.78h14.57v42.6c0,17.18,9,25.78,26.53,25.78h22.05v-25.78H1273.1c-4.11,0-6.36-2.25-6.36-6.36v-35.87h20.93v-25.78h-20.93v-29.89Z"/><g class="cls-97"><rect id="SVGID-113" data-name="SVGID" x="-256.28" y="-1487.51" width="3146.19" height="2223.26"/><rect x="-256.28" y="-1487.51" width="3146.19" height="2223.26"/></g><path d="M1347.45-210.72a19,19,0,0,1,14.58,6.35,35.52,35.52,0,0,1,3.73,6.36h28.4a48.45,48.45,0,0,0-7.85-19.43c-9.34-13.08-22.42-19.43-38.86-19.43-14.2,0-25.78,4.48-34.75,13.82s-13.45,20.93-13.45,35.12,4.49,26.16,13.45,35.13c9,9.34,20.55,13.82,34.75,13.82,16.82,0,29.9-6.35,38.86-19.43a46.46,46.46,0,0,0,7.85-19.43h-28.4a20.5,20.5,0,0,1-3.73,6.36c-3.37,4.48-8.22,6.35-14.58,6.35a19.71,19.71,0,0,1-14.94-6.35c-4.11-4.12-6-9.72-6-16.82,0-6.73,1.87-12.33,6-16.81a22.22,22.22,0,0,1,14.94-5.61"/><g class="cls-98"><rect id="SVGID-114" data-name="SVGID" x="-256.28" y="-1487.51" width="3146.19" height="2223.26"/><rect x="-256.28" y="-1487.51" width="3146.19" height="2223.26"/></g><path d="M1443.48-170.74a20.56,20.56,0,0,0,15.32,6.35,19.74,19.74,0,0,0,15-6.35c4.11-4.11,6-9.71,6-16.81s-1.87-12.33-6-16.82-9-6.35-15-6.35a19.71,19.71,0,0,0-14.94,6.35c-4.11,4.11-6,9.72-6,16.82S1439.75-174.85,1443.48-170.74Zm49.33,30.27-11.59-9.34a56,56,0,0,1-7.1,5.6,33.88,33.88,0,0,1-19.43,5.61c-12.7,0-23.16-4.49-31.76-13.83s-13.08-20.92-13.08-35.12,4.49-25.78,13.08-35.13,19.06-13.82,31.76-13.82a34,34,0,0,1,19.43,5.6,43.66,43.66,0,0,1,6,5.61h.75l1.87-9.34h23.91v94.16Z"/><g class="cls-99"><rect id="SVGID-115" data-name="SVGID" x="-256.28" y="-1487.51" width="3146.19" height="2223.26"/><rect x="-256.28" y="-1487.51" width="3146.19" height="2223.26"/></g><polygon points="1583.98 -232.76 1552.96 -191.29 1552.96 -223.42 1552.96 -269.38 1525.69 -269.38 1525.69 -186.81 1525.69 -140.47 1552.96 -140.47 1552.96 -149.81 1552.96 -181.95 1583.98 -140.47 1615.74 -140.47 1581.36 -186.81 1615.74 -232.76 1583.98 -232.76"/><g class="cls-100"><rect id="SVGID-116" data-name="SVGID" x="-256.28" y="-1487.51" width="3146.19" height="2223.26"/><rect x="-256.28" y="-1487.51" width="3146.19" height="2223.26"/></g><path d="M1037.69-234.63a14.15,14.15,0,0,0-7.85,2.61l-7.47,5.61-11.21-8.6H995.09v94.17h27.28V-192a16.34,16.34,0,0,1,16.44-16.44h16.44v-25.78h-17.56Z"/><g class="cls-101"><rect id="SVGID-117" data-name="SVGID" x="-256.28" y="-1487.51" width="3146.19" height="2223.26"/><rect x="-256.28" y="-1487.51" width="3146.19" height="2223.26"/></g><path d="M931.57-140.47v-68.38H917v-25.78h14.57v-12.71c0-16.44,9-25.78,26.53-25.78H979v22.79H965.2c-4.11,0-6.35,2.25-6.35,6.36v9.34H979v25.78H958.85v68.38Z"/><g class="cls-102"><rect id="SVGID-118" data-name="SVGID" x="-256.28" y="-1487.51" width="3146.19" height="2223.26"/><rect x="-256.28" y="-1487.51" width="3146.19" height="2223.26"/></g><path d="M1131.11-182.69c0,5.23-1.5,9.34-4.86,12.7a16.63,16.63,0,0,1-12.33,4.86c-5.23,0-9.34-1.5-12.33-4.86-3.37-3.36-4.86-7.47-4.86-12.7v-51.57h-27.28v57.17c0,11.58,3.37,20.93,10.46,28s16.07,10.84,26.91,10.84a20,20,0,0,0,4.86-.37,27.87,27.87,0,0,0,14.19-5.61l6-4.48,11.21,8.59h16.07v-94.16h-27.28v51.57Z"/><g class="cls-103"><rect id="SVGID-119" data-name="SVGID" x="-256.28" y="-1487.51" width="3146.19" height="2223.26"/><rect x="-256.28" y="-1487.51" width="3146.19" height="2223.26"/></g></svg>