<svg id="Layer_1" data-name="Layer 1" xmlns="http://www.w3.org/2000/svg" xmlns:xlink="http://www.w3.org/1999/xlink" viewBox="0 0 273.89 300.79"><defs><style>.cls-1{fill:#fff;}.cls-2,.cls-21{fill:#5dfe8c;}.cls-3{clip-path:url(#clip-path);}.cls-4{clip-path:url(#clip-path-2);}.cls-5{clip-path:url(#clip-path-3);}.cls-6{clip-path:url(#clip-path-4);}.cls-7{clip-path:url(#clip-path-5);}.cls-8{clip-path:url(#clip-path-6);}.cls-9{clip-path:url(#clip-path-7);}.cls-10{clip-path:url(#clip-path-8);}.cls-11{clip-path:url(#clip-path-9);}.cls-12{clip-path:url(#clip-path-10);}.cls-13{clip-path:url(#clip-path-11);}.cls-14{clip-path:url(#clip-path-12);}.cls-15{clip-path:url(#clip-path-13);}.cls-16{clip-path:url(#clip-path-14);}.cls-17{clip-path:url(#clip-path-15);}.cls-18{clip-path:url(#clip-path-16);}.cls-19{clip-path:url(#clip-path-17);}.cls-20{clip-path:url(#clip-path-18);}.cls-21{fill-rule:evenodd;}.cls-22{clip-path:url(#clip-path-19);}.cls-23{clip-path:url(#clip-path-20);}</style><clipPath id="clip-path"><path class="cls-1" d="M259.82,869.87H278.5a8.45,8.45,0,0,0,8.59-8.6v-19H268.41a8.45,8.45,0,0,0-8.59,8.59Z"/></clipPath><clipPath id="clip-path-2"><path class="cls-1" d="M271,974.12h16.06v-83A11,11,0,0,0,275.88,880H259.82v82.95A11,11,0,0,0,271,974.12Z"/></clipPath><clipPath id="clip-path-3"><path class="cls-1" d="M345.76,850.44H318.48V880H303.91v25.78h14.57v42.59c0,17.19,9,25.79,26.53,25.79h22.05V948.33H352.48c-4.11,0-6.35-2.24-6.35-6.35V906.11h20.93V880.33H346.13V850.44Z"/></clipPath><clipPath id="clip-path-4"><path class="cls-1" d="M426.84,903.87a18.91,18.91,0,0,1,14.57,6.35,35.23,35.23,0,0,1,3.74,6.35h28.4a48.56,48.56,0,0,0-7.85-19.43c-9.34-13.07-22.42-19.43-38.86-19.43-14.2,0-25.78,4.49-34.75,13.83s-13.45,20.92-13.45,35.12,4.48,26.16,13.45,35.13c9,9.34,20.55,13.82,34.75,13.82,16.82,0,29.89-6.35,38.86-19.43a46.46,46.46,0,0,0,7.85-19.43h-28.4a20.14,20.14,0,0,1-3.74,6.35c-3.36,4.49-8.22,6.36-14.57,6.36a19.71,19.71,0,0,1-14.94-6.36c-4.11-4.11-6-9.71-6-16.81,0-6.73,1.87-12.33,6-16.82a22.26,22.26,0,0,1,14.94-5.6"/></clipPath><clipPath id="clip-path-5"><path class="cls-1" d="M522.87,943.85a20.56,20.56,0,0,0,15.32,6.35,19.74,19.74,0,0,0,14.95-6.35c4.11-4.11,6-9.71,6-16.81s-1.87-12.33-6-16.82-9-6.35-14.95-6.35a19.71,19.71,0,0,0-14.94,6.35c-4.11,4.11-6,9.72-6,16.82S519.14,939.74,522.87,943.85Zm49.32,30.27-11.58-9.34a56,56,0,0,1-7.1,5.6A33.88,33.88,0,0,1,534.08,976c-12.7,0-23.16-4.49-31.76-13.83S489.24,941.24,489.24,927s4.49-25.79,13.08-35.13,19.06-13.82,31.76-13.82a34,34,0,0,1,19.43,5.6,43.66,43.66,0,0,1,6,5.61h.75l1.87-9.34H586v94.16Z"/></clipPath><clipPath id="clip-path-6"><polygon class="cls-1" points="663.37 881.82 632.35 923.3 632.35 891.16 632.35 845.21 605.08 845.21 605.08 927.78 605.08 974.12 632.35 974.12 632.35 964.78 632.35 932.64 663.37 974.12 695.13 974.12 660.75 927.78 695.13 881.82 663.37 881.82"/></clipPath><clipPath id="clip-path-7"><path class="cls-1" d="M117.08,880a14.15,14.15,0,0,0-7.85,2.61l-7.47,5.61-11.21-8.6H74.48v94.16h27.28V922.55a16.34,16.34,0,0,1,16.44-16.44h16.44V880.33H117.08Z"/></clipPath><clipPath id="clip-path-8"><path class="cls-1" d="M11,974.12V905.74H-3.61V880H11V867.25c0-16.44,9-25.78,26.53-25.78H58.42v22.79H44.59c-4.11,0-6.35,2.24-6.35,6.35V880H58.42v25.78H38.24v68.38Z"/></clipPath><clipPath id="clip-path-9"><path class="cls-1" d="M210.49,931.89c0,5.24-1.49,9.35-4.85,12.71a16.65,16.65,0,0,1-12.33,4.86c-5.23,0-9.34-1.5-12.33-4.86-3.37-3.36-4.86-7.47-4.86-12.71V880.33H148.84V937.5c0,11.58,3.36,20.92,10.46,28s16.07,10.84,26.91,10.84a19.84,19.84,0,0,0,4.85-.37,27.87,27.87,0,0,0,14.2-5.61l6-4.48,11.21,8.59h16.07V880.33H211.24v51.56Z"/></clipPath><clipPath id="clip-path-10"><path d="M1175.82,869.87h18.68a8.45,8.45,0,0,0,8.59-8.6v-19h-18.68a8.45,8.45,0,0,0-8.59,8.59Z"/></clipPath><clipPath id="clip-path-11"><path d="M1187,974.12h16.06v-83A11,11,0,0,0,1191.88,880h-16.06v82.95A11,11,0,0,0,1187,974.12Z"/></clipPath><clipPath id="clip-path-12"><path d="M1261.76,850.44h-27.28V880h-14.57v25.78h14.57v42.59c0,17.19,9,25.79,26.53,25.79h22V948.33h-14.58c-4.11,0-6.35-2.24-6.35-6.35V906.11h20.93V880.33h-20.93V850.44Z"/></clipPath><clipPath id="clip-path-13"><path d="M1342.84,903.87a18.91,18.91,0,0,1,14.57,6.35,35.23,35.23,0,0,1,3.74,6.35h28.4a48.56,48.56,0,0,0-7.85-19.43c-9.34-13.07-22.42-19.43-38.86-19.43-14.2,0-25.78,4.49-34.75,13.83s-13.45,20.92-13.45,35.12,4.48,26.16,13.45,35.13c9,9.34,20.55,13.82,34.75,13.82,16.82,0,29.89-6.35,38.86-19.43a46.46,46.46,0,0,0,7.85-19.43h-28.4a20.14,20.14,0,0,1-3.74,6.35c-3.36,4.49-8.22,6.36-14.57,6.36a19.71,19.71,0,0,1-14.94-6.36c-4.11-4.11-6-9.71-6-16.81,0-6.73,1.87-12.33,6-16.82a22.26,22.26,0,0,1,14.94-5.6"/></clipPath><clipPath id="clip-path-14"><path d="M1438.87,943.85a20.56,20.56,0,0,0,15.32,6.35,19.74,19.74,0,0,0,15-6.35c4.11-4.11,6-9.71,6-16.81s-1.87-12.33-6-16.82-9-6.35-15-6.35a19.71,19.71,0,0,0-14.94,6.35c-4.11,4.11-6,9.72-6,16.82S1435.14,939.74,1438.87,943.85Zm49.32,30.27-11.58-9.34a56,56,0,0,1-7.1,5.6,33.88,33.88,0,0,1-19.43,5.61c-12.7,0-23.16-4.49-31.76-13.83s-13.08-20.92-13.08-35.12,4.49-25.79,13.08-35.13,19.06-13.82,31.76-13.82a34,34,0,0,1,19.43,5.6,43.66,43.66,0,0,1,6,5.61h.75l1.87-9.34H1502v94.16Z"/></clipPath><clipPath id="clip-path-15"><polygon points="1579.37 881.82 1548.35 923.3 1548.35 891.16 1548.35 845.21 1521.08 845.21 1521.08 927.78 1521.08 974.12 1548.35 974.12 1548.35 964.78 1548.35 932.64 1579.37 974.12 1611.13 974.12 1576.75 927.78 1611.13 881.82 1579.37 881.82"/></clipPath><clipPath id="clip-path-16"><path d="M1033.08,880a14.15,14.15,0,0,0-7.85,2.61l-7.47,5.61-11.21-8.6H990.48v94.16h27.28V922.55a16.34,16.34,0,0,1,16.44-16.44h16.44V880.33h-17.56Z"/></clipPath><clipPath id="clip-path-17"><path d="M927,974.12V905.74H912.39V880H927V867.25c0-16.44,9-25.78,26.53-25.78h20.93v22.79H960.59c-4.11,0-6.35,2.24-6.35,6.35V880h20.18v25.78H954.24v68.38Z"/></clipPath><clipPath id="clip-path-18"><path d="M1126.49,931.89c0,5.24-1.49,9.35-4.85,12.71a16.65,16.65,0,0,1-12.33,4.86c-5.23,0-9.34-1.5-12.33-4.86-3.37-3.36-4.86-7.47-4.86-12.71V880.33h-27.28V937.5c0,11.58,3.36,20.92,10.46,28s16.07,10.84,26.91,10.84a19.84,19.84,0,0,0,4.85-.37,27.87,27.87,0,0,0,14.2-5.61l6-4.48,11.21,8.59h16.07V880.33h-27.28v51.56Z"/></clipPath><clipPath id="clip-path-19"><path class="cls-2" d="M56.42,19.06C25,21.67,0,49.7,0,81.08V300.79l217.47-19.05c31.39-2.62,56.42-30.64,56.42-62V0Zm99,145.72c0,10.47-8.59,19.81-18.68,20.55l-27.28,2.25v27.65c0,10.46-8.59,19.8-18.68,20.55L63.52,238V164.78c0-10.46,8.6-19.8,18.68-20.55l73.24-6.35ZM210,90.05c0,10.46-8.6,19.81-18.69,20.55L85.94,119.94V92.29c0-10.46,8.6-19.8,18.68-20.55L210,62.4Z"/></clipPath><clipPath id="clip-path-20"><rect class="cls-2" x="-0.37" width="274.26" height="301.17"/></clipPath></defs><path class="cls-1" d="M259.82,869.87H278.5a8.45,8.45,0,0,0,8.59-8.6v-19H268.41a8.45,8.45,0,0,0-8.59,8.59Z"/><g class="cls-3"><rect id="SVGID" class="cls-1" x="-1176.89" y="-372.92" width="3146.19" height="2223.26"/><rect class="cls-1" x="-1176.89" y="-372.92" width="3146.19" height="2223.26"/></g><path class="cls-1" d="M271,974.12h16.06v-83A11,11,0,0,0,275.88,880H259.82v82.95A11,11,0,0,0,271,974.12Z"/><g class="cls-4"><rect id="SVGID-2" data-name="SVGID" class="cls-1" x="-1176.89" y="-372.92" width="3146.19" height="2223.26"/><rect class="cls-1" x="-1176.89" y="-372.92" width="3146.19" height="2223.26"/></g><path class="cls-1" d="M345.76,850.44H318.48V880H303.91v25.78h14.57v42.59c0,17.19,9,25.79,26.53,25.79h22.05V948.33H352.48c-4.11,0-6.35-2.24-6.35-6.35V906.11h20.93V880.33H346.13V850.44Z"/><g class="cls-5"><rect id="SVGID-3" data-name="SVGID" class="cls-1" x="-1176.89" y="-372.92" width="3146.19" height="2223.26"/><rect class="cls-1" x="-1176.89" y="-372.92" width="3146.19" height="2223.26"/></g><path class="cls-1" d="M426.84,903.87a18.91,18.91,0,0,1,14.57,6.35,35.23,35.23,0,0,1,3.74,6.35h28.4a48.56,48.56,0,0,0-7.85-19.43c-9.34-13.07-22.42-19.43-38.86-19.43-14.2,0-25.78,4.49-34.75,13.83s-13.45,20.92-13.45,35.12,4.48,26.16,13.45,35.13c9,9.34,20.55,13.82,34.75,13.82,16.82,0,29.89-6.35,38.86-19.43a46.46,46.46,0,0,0,7.85-19.43h-28.4a20.14,20.14,0,0,1-3.74,6.35c-3.36,4.49-8.22,6.36-14.57,6.36a19.71,19.71,0,0,1-14.94-6.36c-4.11-4.11-6-9.71-6-16.81,0-6.73,1.87-12.33,6-16.82a22.26,22.26,0,0,1,14.94-5.6"/><g class="cls-6"><rect id="SVGID-4" data-name="SVGID" class="cls-1" x="-1176.89" y="-372.92" width="3146.19" height="2223.26"/><rect class="cls-1" x="-1176.89" y="-372.92" width="3146.19" height="2223.26"/></g><path class="cls-1" d="M522.87,943.85a20.56,20.56,0,0,0,15.32,6.35,19.74,19.74,0,0,0,14.95-6.35c4.11-4.11,6-9.71,6-16.81s-1.87-12.33-6-16.82-9-6.35-14.95-6.35a19.71,19.71,0,0,0-14.94,6.35c-4.11,4.11-6,9.72-6,16.82S519.14,939.74,522.87,943.85Zm49.32,30.27-11.58-9.34a56,56,0,0,1-7.1,5.6A33.88,33.88,0,0,1,534.08,976c-12.7,0-23.16-4.49-31.76-13.83S489.24,941.24,489.24,927s4.49-25.79,13.08-35.13,19.06-13.82,31.76-13.82a34,34,0,0,1,19.43,5.6,43.66,43.66,0,0,1,6,5.61h.75l1.87-9.34H586v94.16Z"/><g class="cls-7"><rect id="SVGID-5" data-name="SVGID" class="cls-1" x="-1176.89" y="-372.92" width="3146.19" height="2223.26"/><rect class="cls-1" x="-1176.89" y="-372.92" width="3146.19" height="2223.26"/></g><polygon class="cls-1" points="663.37 881.82 632.35 923.3 632.35 891.16 632.35 845.21 605.08 845.21 605.08 927.78 605.08 974.12 632.35 974.12 632.35 964.78 632.35 932.64 663.37 974.12 695.13 974.12 660.75 927.78 695.13 881.82 663.37 881.82"/><g class="cls-8"><rect id="SVGID-6" data-name="SVGID" class="cls-1" x="-1176.89" y="-372.92" width="3146.19" height="2223.26"/><rect class="cls-1" x="-1176.89" y="-372.92" width="3146.19" height="2223.26"/></g><path class="cls-1" d="M117.08,880a14.15,14.15,0,0,0-7.85,2.61l-7.47,5.61-11.21-8.6H74.48v94.16h27.28V922.55a16.34,16.34,0,0,1,16.44-16.44h16.44V880.33H117.08Z"/><g class="cls-9"><rect id="SVGID-7" data-name="SVGID" class="cls-1" x="-1176.89" y="-372.92" width="3146.19" height="2223.26"/><rect class="cls-1" x="-1176.89" y="-372.92" width="3146.19" height="2223.26"/></g><path class="cls-1" d="M11,974.12V905.74H-3.61V880H11V867.25c0-16.44,9-25.78,26.53-25.78H58.42v22.79H44.59c-4.11,0-6.35,2.24-6.35,6.35V880H58.42v25.78H38.24v68.38Z"/><g class="cls-10"><rect id="SVGID-8" data-name="SVGID" class="cls-1" x="-1176.89" y="-372.92" width="3146.19" height="2223.26"/><rect class="cls-1" x="-1176.89" y="-372.92" width="3146.19" height="2223.26"/></g><path class="cls-1" d="M210.49,931.89c0,5.24-1.49,9.35-4.85,12.71a16.65,16.65,0,0,1-12.33,4.86c-5.23,0-9.34-1.5-12.33-4.86-3.37-3.36-4.86-7.47-4.86-12.71V880.33H148.84V937.5c0,11.58,3.36,20.92,10.46,28s16.07,10.84,26.91,10.84a19.84,19.84,0,0,0,4.85-.37,27.87,27.87,0,0,0,14.2-5.61l6-4.48,11.21,8.59h16.07V880.33H211.24v51.56Z"/><g class="cls-11"><rect id="SVGID-9" data-name="SVGID" class="cls-1" x="-1176.89" y="-372.92" width="3146.19" height="2223.26"/><rect class="cls-1" x="-1176.89" y="-372.92" width="3146.19" height="2223.26"/></g><path d="M1175.82,869.87h18.68a8.45,8.45,0,0,0,8.59-8.6v-19h-18.68a8.45,8.45,0,0,0-8.59,8.59Z"/><g class="cls-12"><rect id="SVGID-10" data-name="SVGID" x="-260.89" y="-372.92" width="3146.19" height="2223.26"/><rect x="-260.89" y="-372.92" width="3146.19" height="2223.26"/></g><path d="M1187,974.12h16.06v-83A11,11,0,0,0,1191.88,880h-16.06v82.95A11,11,0,0,0,1187,974.12Z"/><g class="cls-13"><rect id="SVGID-11" data-name="SVGID" x="-260.89" y="-372.92" width="3146.19" height="2223.26"/><rect x="-260.89" y="-372.92" width="3146.19" height="2223.26"/></g><path d="M1261.76,850.44h-27.28V880h-14.57v25.78h14.57v42.59c0,17.19,9,25.79,26.53,25.79h22V948.33h-14.58c-4.11,0-6.35-2.24-6.35-6.35V906.11h20.93V880.33h-20.93V850.44Z"/><g class="cls-14"><rect id="SVGID-12" data-name="SVGID" x="-260.89" y="-372.92" width="3146.19" height="2223.26"/><rect x="-260.89" y="-372.92" width="3146.19" height="2223.26"/></g><path d="M1342.84,903.87a18.91,18.91,0,0,1,14.57,6.35,35.23,35.23,0,0,1,3.74,6.35h28.4a48.56,48.56,0,0,0-7.85-19.43c-9.34-13.07-22.42-19.43-38.86-19.43-14.2,0-25.78,4.49-34.75,13.83s-13.45,20.92-13.45,35.12,4.48,26.16,13.45,35.13c9,9.34,20.55,13.82,34.75,13.82,16.82,0,29.89-6.35,38.86-19.43a46.46,46.46,0,0,0,7.85-19.43h-28.4a20.14,20.14,0,0,1-3.74,6.35c-3.36,4.49-8.22,6.36-14.57,6.36a19.71,19.71,0,0,1-14.94-6.36c-4.11-4.11-6-9.71-6-16.81,0-6.73,1.87-12.33,6-16.82a22.26,22.26,0,0,1,14.94-5.6"/><g class="cls-15"><rect id="SVGID-13" data-name="SVGID" x="-260.89" y="-372.92" width="3146.19" height="2223.26"/><rect x="-260.89" y="-372.92" width="3146.19" height="2223.26"/></g><path d="M1438.87,943.85a20.56,20.56,0,0,0,15.32,6.35,19.74,19.74,0,0,0,15-6.35c4.11-4.11,6-9.71,6-16.81s-1.87-12.33-6-16.82-9-6.35-15-6.35a19.71,19.71,0,0,0-14.94,6.35c-4.11,4.11-6,9.72-6,16.82S1435.14,939.74,1438.87,943.85Zm49.32,30.27-11.58-9.34a56,56,0,0,1-7.1,5.6,33.88,33.88,0,0,1-19.43,5.61c-12.7,0-23.16-4.49-31.76-13.83s-13.08-20.92-13.08-35.12,4.49-25.79,13.08-35.13,19.06-13.82,31.76-13.82a34,34,0,0,1,19.43,5.6,43.66,43.66,0,0,1,6,5.61h.75l1.87-9.34H1502v94.16Z"/><g class="cls-16"><rect id="SVGID-14" data-name="SVGID" x="-260.89" y="-372.92" width="3146.19" height="2223.26"/><rect x="-260.89" y="-372.92" width="3146.19" height="2223.26"/></g><polygon points="1579.37 881.82 1548.35 923.3 1548.35 891.16 1548.35 845.21 1521.08 845.21 1521.08 927.78 1521.08 974.12 1548.35 974.12 1548.35 964.78 1548.35 932.64 1579.37 974.12 1611.13 974.12 1576.75 927.78 1611.13 881.82 1579.37 881.82"/><g class="cls-17"><rect id="SVGID-15" data-name="SVGID" x="-260.89" y="-372.92" width="3146.19" height="2223.26"/><rect x="-260.89" y="-372.92" width="3146.19" height="2223.26"/></g><path d="M1033.08,880a14.15,14.15,0,0,0-7.85,2.61l-7.47,5.61-11.21-8.6H990.48v94.16h27.28V922.55a16.34,16.34,0,0,1,16.44-16.44h16.44V880.33h-17.56Z"/><g class="cls-18"><rect id="SVGID-16" data-name="SVGID" x="-260.89" y="-372.92" width="3146.19" height="2223.26"/><rect x="-260.89" y="-372.92" width="3146.19" height="2223.26"/></g><path d="M927,974.12V905.74H912.39V880H927V867.25c0-16.44,9-25.78,26.53-25.78h20.93v22.79H960.59c-4.11,0-6.35,2.24-6.35,6.35V880h20.18v25.78H954.24v68.38Z"/><g class="cls-19"><rect id="SVGID-17" data-name="SVGID" x="-260.89" y="-372.92" width="3146.19" height="2223.26"/><rect x="-260.89" y="-372.92" width="3146.19" height="2223.26"/></g><path d="M1126.49,931.89c0,5.24-1.49,9.35-4.85,12.71a16.65,16.65,0,0,1-12.33,4.86c-5.23,0-9.34-1.5-12.33-4.86-3.37-3.36-4.86-7.47-4.86-12.71V880.33h-27.28V937.5c0,11.58,3.36,20.92,10.46,28s16.07,10.84,26.91,10.84a19.84,19.84,0,0,0,4.85-.37,27.87,27.87,0,0,0,14.2-5.61l6-4.48,11.21,8.59h16.07V880.33h-27.28v51.56Z"/><g class="cls-20"><rect id="SVGID-18" data-name="SVGID" x="-260.89" y="-372.92" width="3146.19" height="2223.26"/><rect x="-260.89" y="-372.92" width="3146.19" height="2223.26"/></g><path id="SVGID-19" data-name="SVGID" class="cls-21" d="M56.42,19.06C25,21.67,0,49.7,0,81.08V300.79l217.47-19.05c31.39-2.62,56.42-30.64,56.42-62V0Zm99,145.72c0,10.47-8.59,19.81-18.68,20.55l-27.28,2.25v27.65c0,10.46-8.59,19.8-18.68,20.55L63.52,238V164.78c0-10.46,8.6-19.8,18.68-20.55l73.24-6.35ZM210,90.05c0,10.46-8.6,19.81-18.69,20.55L85.94,119.94V92.29c0-10.46,8.6-19.8,18.68-20.55L210,62.4Z"/><path class="cls-2" d="M56.42,19.06C25,21.67,0,49.7,0,81.08V300.79l217.47-19.05c31.39-2.62,56.42-30.64,56.42-62V0Zm99,145.72c0,10.47-8.59,19.81-18.68,20.55l-27.28,2.25v27.65c0,10.46-8.59,19.8-18.68,20.55L63.52,238V164.78c0-10.46,8.6-19.8,18.68-20.55l73.24-6.35ZM210,90.05c0,10.46-8.6,19.81-18.69,20.55L85.94,119.94V92.29c0-10.46,8.6-19.8,18.68-20.55L210,62.4Z"/><g class="cls-22"><rect id="SVGID-20" data-name="SVGID" class="cls-2" x="-0.37" width="274.26" height="301.17"/><rect class="cls-2" x="-0.37" width="274.26" height="301.17"/><g class="cls-23"><rect class="cls-2" x="-4.11" y="-3.74" width="281.74" height="308.64"/></g></g></svg>